<?xml version="1.0" encoding="UTF-8"?>
<svg id="Capa_1" data-name="Capa 1" xmlns="http://www.w3.org/2000/svg" xmlns:xlink="http://www.w3.org/1999/xlink" viewBox="0 0 1000 1000">
  <defs>
    <style>
      .cls-1 {
        fill: #000;
      }

      .cls-1, .cls-2 {
        stroke-width: 0px;
      }

      .cls-2 {
        fill: url(#Degradado_sin_nombre_11);
        opacity: .3;
      }
    </style>
    <linearGradient id="Degradado_sin_nombre_11" data-name="Degradado sin nombre 11" x1="508.01" y1="558.81" x2="698.84" y2="347.9" gradientUnits="userSpaceOnUse">
      <stop offset="0" stop-color="#fff"/>
      <stop offset="1" stop-color="#fff" stop-opacity="0"/>
    </linearGradient>
  </defs>
  <path class="cls-1" d="M500,1000C224.3,1000,0,775.7,0,500S224.3,0,500,0s500,224.3,500,500-224.3,500-500,500ZM500,25.21C238.2,25.21,25.21,238.2,25.21,500s212.99,474.79,474.79,474.79,474.79-212.99,474.79-474.79S761.8,25.21,500,25.21Z"/>
  <g>
    <path class="cls-1" d="M759.7,511.66c.08-18.39-5.43-35.09-14.54-50.88-7.79-13.48-19.78-23.1-30.52-33.86-1.43-1.43-3.25-2.45-5.74-4.3,3.29-1.15,4.65-1.62,6.01-2.13,8.62-3.24,16.16-8.02,21.43-15.76,6.57-9.67,4.33-19.4-5.93-24.8-9.71-5.11-20.28-6.49-31.03-5.58-10.66.93-15.26,5.72-16.99,16.4-.18,1.19-.43,2.36-.79,4.2-14.86-14.32-29.11-28.09-43.43-41.79-12.52-12.01-27.54-18.18-44.85-18.21-57.1-.1-114.2-.1-171.3,0-16.25.03-30.51,5.39-42.58,15.97-.79.69-1.55,1.39-2.32,2.12-13.18,12.58-26.24,25.26-39.37,37.88-1.27,1.22-2.6,2.36-4.28,3.86-.4-2.48-.67-4.39-1.04-6.28-1.36-7.13-5.39-12.15-12.58-13.45-12.79-2.34-25.23-.66-36.63,5.8-7.97,4.5-10.4,12.6-6.03,20.68,2.28,4.2,5.56,8.27,9.36,11.11,5.42,4.02,11.72,6.88,16.83,9.76-4.12,4.5-8.46,9.87-13.43,14.57-10.85,10.24-20.42,21.48-25.84,35.49-3.57,9.22-5.79,18.98-8.61,28.5v78.77c2.48,12.04,6.76,23.21,15.12,32.56.91,1.03.95,3.06.98,4.62.1,6.57-.08,13.13.06,19.7.38,16.35,9.86,27.06,26.18,28.04,12.57.75,25.25.5,37.83-.24,12.46-.74,22.04-10.87,23.4-23.32.32-2.9.5-5.82.75-8.91h295.87c0,.69-.02,1.36-.02,2-.02,1.2-.03,2.36.03,3.51.91,15.71,10.15,25.99,25.78,26.9,12.89.75,25.92.53,38.83-.24,4.95-.29,9.57-2.28,13.34-5.37,5.21-4.25,8.78-10.61,9.35-17.51.66-8.16.29-16.4.63-24.57.08-1.97.71-4.28,1.91-5.76,9.67-11.78,14.25-25.22,14.17-40.41-.11-19.69-.1-39.39,0-59.07ZM340.28,424.44c16.33-15.77,32.61-31.6,48.94-47.37,1.14-1.09,2.26-2.2,3.4-3.29,8.51-8.24,18.72-12.36,30.6-12.36,56.28.02,112.55.02,168.82,0,11.88,0,22.07,4.18,30.59,12.42,17.46,16.86,34.88,33.78,52.32,50.67,1.14,1.11,2.2,2.31,3.83,4.02h-341.4c-.38-.45-.79-.91-1.17-1.36,1.36-.9,2.9-1.64,4.07-2.74ZM277.78,508.01c-3.91-11.4-1.55-21.9,6.97-30.33,7.68-7.6,17.04-10.08,27.57-6.28,18.11,6.52,34.26,16.29,48.4,29.34,2.26,2.08,4.26,4.55,5.98,7.13,4.73,7.15,2.87,13.26-5.45,15.52-7.37,2-15.07,2.98-22.68,3.8-5.35.58-10.8.11-16.21.11-.02.18-.02.35-.02.53-7.52-.38-15.1-.29-22.55-1.23-11.11-1.43-18.43-8.18-22.01-18.58ZM365.61,603.57c-13.77,0-27.56-.18-41.33.1-10.28.21-18.9-3.77-26.59-9.84-9.33-7.37-11.01-17.17-5.66-27.67,1.27-2.48,2.76-3.61,5.67-3.59,15.58.14,31.16.02,46.74.14,1.64,0,3.8.51,4.79,1.62,11.21,12.6,22.25,25.38,34.32,39.24h-17.95ZM622.78,506.7c.54,10.29-1.73,19.83-6.19,28.85-3.61,7.34-8.43,13.83-16.37,16.88-3.57,1.38-7.6,2.16-11.43,2.16-23.76.06-47.51.08-71.25.1-30.38,0-60.75,0-91.13.05-9.63.02-17.07-3.83-22.83-11.32-8.24-10.68-11.32-22.94-11.37-36.73h230.56ZM588.32,603.33c-1.46.14-2.93.22-4.41.22-50.83.02-101.66.11-152.5-.03-17.2-.05-28.97-11.43-29.91-28.66h211.7c1.38,12.87-9.94,26.24-23.5,28.31-.45.06-.91.11-1.38.16ZM638.11,603.57h-6.44c2.4-2.77,3.96-4.57,5.53-6.36,9.15-10.52,18.23-21.11,27.59-31.42,1.51-1.67,4.34-2.93,6.59-2.98,15.24-.26,30.51-.05,45.75-.19,3.05-.03,4.73.98,6.09,3.7,5.21,10.37,3.64,20.02-5.48,27.28-7.79,6.22-16.53,10.28-26.98,10.1-17.54-.29-35.09-.11-52.64-.13ZM737.43,507.9c-3.62,10.58-11.04,17.39-22.41,18.74-7.29.87-14.7.82-22.06,1.17-.05.26-.1.53-.13.79-11.85-1.36-23.69-2.68-35.52-4.12-1.59-.19-3.16-.87-4.65-1.51-6.88-2.98-9.01-8.11-4.65-14.09,4.01-5.48,8.9-10.53,14.2-14.78,12.05-9.68,25.42-17.26,40.04-22.55,10.88-3.93,20.52-1.59,28.42,6.4,8.3,8.38,10.58,18.77,6.75,29.96Z"/>
    <path class="cls-2" d="M759.7,511.66c.08-18.39-5.43-35.09-14.54-50.88-7.79-13.48-19.78-23.1-30.52-33.86-1.43-1.43-3.25-2.45-5.74-4.3,3.29-1.15,4.65-1.62,6.01-2.13,8.62-3.24,16.16-8.02,21.43-15.76,6.57-9.67,4.33-19.4-5.93-24.8-9.71-5.11-20.28-6.49-31.03-5.58-10.66.93-15.26,5.72-16.99,16.4-.18,1.19-.43,2.36-.79,4.2-14.86-14.32-29.11-28.09-43.43-41.79-12.52-12.01-27.54-18.18-44.85-18.21-57.1-.1-114.2-.1-171.3,0-16.25.03-30.51,5.39-42.58,15.97,2.71,8.19,5.96,16.96,9.78,26.15,1.14-1.09,2.26-2.2,3.4-3.29,8.51-8.24,18.72-12.36,30.6-12.36,56.28.02,112.55.02,168.82,0,11.88,0,22.07,4.18,30.59,12.42,17.46,16.86,34.88,33.78,52.32,50.67,1.14,1.11,2.2,2.31,3.83,4.02h-264.39c14.6,25.92,32.78,52.8,54.6,78.15h153.79c.54,10.29-1.73,19.83-6.19,28.85-3.61,7.34-8.43,13.83-16.37,16.88-3.57,1.38-7.6,2.16-11.43,2.16-23.76.06-47.51.08-71.25.1.16.13.32.27.48.4,8.35,6.91,17.06,13.5,26,19.77h69.17c1.38,12.87-9.94,26.24-23.5,28.31,20.34,11.17,41.02,20.86,61.03,29.01,1.65.69,3.3,1.36,4.95,2,28.63,11.43,55.66,19.7,77.97,24.8,5.21-4.25,8.78-10.61,9.35-17.51.66-8.16.29-16.4.63-24.57.08-1.97.71-4.28,1.91-5.76,9.67-11.78,14.25-25.22,14.17-40.41-.11-19.69-.1-39.39,0-59.07ZM717.73,593.6c-7.79,6.22-16.53,10.28-26.98,10.1-17.54-.29-35.09-.11-52.64-.13h-6.44c2.4-2.77,3.96-4.57,5.53-6.36,9.15-10.52,18.23-21.11,27.59-31.42,1.51-1.67,4.34-2.93,6.59-2.98,15.24-.26,30.51-.05,45.75-.19,3.05-.03,4.73.98,6.09,3.7,5.21,10.37,3.64,20.02-5.48,27.28ZM737.43,507.9c-3.62,10.58-11.04,17.39-22.41,18.74-7.29.87-14.7.82-22.06,1.17-.05.26-.1.53-.13.79-11.85-1.36-23.69-2.68-35.52-4.12-1.59-.19-3.16-.87-4.65-1.51-6.88-2.98-9.01-8.11-4.65-14.09,4.01-5.48,8.9-10.53,14.2-14.78,12.05-9.68,25.42-17.26,40.04-22.55,10.88-3.93,20.52-1.59,28.42,6.4,8.3,8.38,10.58,18.77,6.75,29.96Z"/>
  </g>
</svg>