<?xml version="1.0" encoding="UTF-8"?>
<svg id="Capa_1" data-name="Capa 1" xmlns="http://www.w3.org/2000/svg" xmlns:xlink="http://www.w3.org/1999/xlink" viewBox="0 0 1000 1000">
  <defs>
    <style>
      .cls-1 {
        fill: #000;
      }

      .cls-1, .cls-2, .cls-3 {
        stroke-width: 0px;
      }

      .cls-2 {
        fill: url(#Degradado_sin_nombre_11-2);
      }

      .cls-2, .cls-3 {
        opacity: .3;
      }

      .cls-3 {
        fill: url(#Degradado_sin_nombre_11);
      }
    </style>
    <linearGradient id="Degradado_sin_nombre_11" data-name="Degradado sin nombre 11" x1="485.06" y1="532.23" x2="634.18" y2="367.42" gradientUnits="userSpaceOnUse">
      <stop offset="0" stop-color="#fff"/>
      <stop offset="1" stop-color="#fff" stop-opacity="0"/>
    </linearGradient>
    <linearGradient id="Degradado_sin_nombre_11-2" data-name="Degradado sin nombre 11" x1="446.32" y1="392.52" x2="569.58" y2="256.29" xlink:href="#Degradado_sin_nombre_11"/>
  </defs>
  <path class="cls-1" d="M500,1000C224.3,1000,0,775.7,0,500S224.3,0,500,0s500,224.3,500,500-224.3,500-500,500ZM500,25.21C238.2,25.21,25.21,238.2,25.21,500s212.99,474.79,474.79,474.79,474.79-212.99,474.79-474.79S761.8,25.21,500,25.21Z"/>
  <g>
    <rect class="cls-1" x="373.21" y="363.5" width="254.48" height="275.46"/>
    <path class="cls-1" d="M627.94,348.02h-254.07c-5.23-18.22.78-40.14,13.7-50.11,2.19-1.69,4.47-3.13,6.86-4.28,4.83-2.39,10.07-3.64,15.68-3.66,60.26-.04,120.54-.13,180.81.04,20.32.05,36.44,16.25,37,36.6.19,6.99.03,13.99.03,21.41Z"/>
    <path class="cls-1" d="M627.73,654.73h-254.65c0,5.7-.03,10.98,0,16.28.11,22.85,16.13,38.95,38.9,39.04,15.61.06,31.23.01,46.84.01,43.56,0,87.12.06,130.68-.03,20.18-.03,35.77-13.55,38.09-33.42.81-7.06.13-14.3.13-21.89ZM515.8,689.58c-5.13.1-10.27.03-15.4.03-5.13-.01-10.27.08-15.4-.04-4.91-.11-7.91-2.95-8-7.25-.08-4.49,3.02-7.6,8.14-7.66,10.27-.14,20.53-.13,30.8-.01,5.18.06,8.24,3.07,8.21,7.58-.02,4.5-3.07,7.26-8.35,7.36Z"/>
    <path class="cls-3" d="M410.87,363.5h216.82v261.81c-39.43-16.65-91.27-49.16-131.32-96.91-40.46-48.23-68.85-111.94-85.5-164.89Z"/>
    <path class="cls-2" d="M627.94,348.02h-221.7c-5.97-21.11-9.9-39.87-11.81-54.39,4.83-2.39,10.07-3.64,15.68-3.66,60.26-.04,120.54-.13,180.81.04,20.32.05,36.44,16.25,37,36.6.19,6.99.03,13.99.03,21.41Z"/>
  </g>
</svg>