<?xml version="1.0" encoding="UTF-8"?>
<svg id="Capa_1" data-name="Capa 1" xmlns="http://www.w3.org/2000/svg" xmlns:xlink="http://www.w3.org/1999/xlink" viewBox="0 0 1000 1000">
  <defs>
    <style>
      .cls-1 {
        fill: #000;
      }

      .cls-1, .cls-2 {
        stroke-width: 0px;
      }

      .cls-2 {
        fill: url(#Degradado_sin_nombre_11);
        opacity: .3;
      }
    </style>
    <linearGradient id="Degradado_sin_nombre_11" data-name="Degradado sin nombre 11" x1="462.87" y1="520.02" x2="650.32" y2="312.84" gradientUnits="userSpaceOnUse">
      <stop offset="0" stop-color="#fff"/>
      <stop offset="1" stop-color="#fff" stop-opacity="0"/>
    </linearGradient>
  </defs>
  <path class="cls-1" d="M500,1000C224.3,1000,0,775.7,0,500S224.3,0,500,0s500,224.3,500,500-224.3,500-500,500ZM500,25.21C238.2,25.21,25.21,238.2,25.21,500s212.99,474.79,474.79,474.79,474.79-212.99,474.79-474.79S761.8,25.21,500,25.21Z"/>
  <g>
    <path class="cls-1" d="M682.49,348.72c-.77-5.42-4.65-9.89-9.92-11.35l-168.88-46.96c-1.06-.31-2.14-.48-3.22-.49h-.92c-1.1.02-2.18.18-3.22.49l-121.24,33.71-47.64,13.26c-5.27,1.46-9.17,5.93-9.92,11.35-.99,7.03-23.33,173.46,33.98,256.25,57.25,82.68,141.71,103.87,145.28,104.74,1.06.26,2.14.37,3.22.37s2.16-.13,3.22-.37c3.31-.82,76.37-19.15,132.63-87.97,4.32-5.29,8.55-10.88,12.63-16.77,57.32-82.79,34.97-249.22,34-256.25ZM493.71,561.07c-2.67,2.67-6.19,4.03-9.7,4.03s-7.03-1.35-9.7-4.03l-71.22-71.22c-2.58-2.58-4.03-6.08-4.03-9.72s1.45-7.12,4.03-9.7l14.13-14.13c2.91-2.91,6.83-4.25,10.64-3.99,3.2.22,6.33,1.54,8.79,3.99l47.36,47.36,91.34-91.34c2.58-2.58,6.06-4.03,9.7-4.03s7.14,1.45,9.72,4.03l14.13,14.13c5.36,5.36,5.36,14.06,0,19.43l-101.72,101.72-13.48,13.48Z"/>
    <path class="cls-2" d="M648.49,604.97c-4.08,5.9-8.31,11.48-12.63,16.77-40.39-15.16-88.38-39.97-128.67-74.15l101.72-101.72c5.36-5.36,5.36-14.06,0-19.43l-14.13-14.13c-2.58-2.58-6.08-4.03-9.72-4.03s-7.12,1.45-9.7,4.03l-91.34,91.34-47.36-47.36c-2.45-2.45-5.58-3.77-8.79-3.99-29.02-48.13-46.52-96.84-52.77-128.18l121.24-33.71c1.04-.31,2.12-.48,3.22-.49h.92c1.08.02,2.16.18,3.22.49l168.88,46.96c5.27,1.46,9.15,5.93,9.92,11.35.97,7.03,23.33,173.46-34,256.25Z"/>
  </g>
</svg>