<?xml version="1.0" encoding="UTF-8"?>
<svg id="Capa_1" data-name="Capa 1" xmlns="http://www.w3.org/2000/svg" xmlns:xlink="http://www.w3.org/1999/xlink" viewBox="0 0 1000 1000">
  <defs>
    <style>
      .cls-1 {
        fill: url(#Degradado_sin_nombre_11-7);
      }

      .cls-1, .cls-2, .cls-3, .cls-4, .cls-5, .cls-6, .cls-7, .cls-8, .cls-9, .cls-10, .cls-11, .cls-12, .cls-13, .cls-14 {
        stroke-width: 0px;
      }

      .cls-1, .cls-2, .cls-3, .cls-5, .cls-6, .cls-7, .cls-8, .cls-9, .cls-10, .cls-11, .cls-12, .cls-13, .cls-14 {
        opacity: .3;
      }

      .cls-2 {
        fill: url(#Degradado_sin_nombre_11-12);
      }

      .cls-3 {
        fill: url(#Degradado_sin_nombre_11-6);
      }

      .cls-4 {
        fill: #000;
      }

      .cls-5 {
        fill: url(#Degradado_sin_nombre_11-2);
      }

      .cls-6 {
        fill: url(#Degradado_sin_nombre_11-9);
      }

      .cls-7 {
        fill: url(#Degradado_sin_nombre_11-8);
      }

      .cls-8 {
        fill: url(#Degradado_sin_nombre_11-4);
      }

      .cls-9 {
        fill: url(#Degradado_sin_nombre_11-5);
      }

      .cls-10 {
        fill: url(#Degradado_sin_nombre_11-10);
      }

      .cls-11 {
        fill: url(#Degradado_sin_nombre_11-3);
      }

      .cls-12 {
        fill: url(#Degradado_sin_nombre_11-13);
      }

      .cls-13 {
        fill: url(#Degradado_sin_nombre_11-11);
      }

      .cls-14 {
        fill: url(#Degradado_sin_nombre_11);
      }
    </style>
    <linearGradient id="Degradado_sin_nombre_11" data-name="Degradado sin nombre 11" x1="327.14" y1="473.68" x2="383.53" y2="411.35" gradientUnits="userSpaceOnUse">
      <stop offset="0" stop-color="#fff"/>
      <stop offset="1" stop-color="#fff" stop-opacity="0"/>
    </linearGradient>
    <linearGradient id="Degradado_sin_nombre_11-2" data-name="Degradado sin nombre 11" x1="340.53" y1="407.81" x2="442.19" y2="295.45" xlink:href="#Degradado_sin_nombre_11"/>
    <linearGradient id="Degradado_sin_nombre_11-3" data-name="Degradado sin nombre 11" x1="435.03" y1="402.4" x2="505.02" y2="325.05" xlink:href="#Degradado_sin_nombre_11"/>
    <linearGradient id="Degradado_sin_nombre_11-4" data-name="Degradado sin nombre 11" x1="429.78" y1="584.46" x2="484.22" y2="524.3" xlink:href="#Degradado_sin_nombre_11"/>
    <linearGradient id="Degradado_sin_nombre_11-5" data-name="Degradado sin nombre 11" x1="400.68" y1="511.67" x2="489.08" y2="413.97" xlink:href="#Degradado_sin_nombre_11"/>
    <linearGradient id="Degradado_sin_nombre_11-6" data-name="Degradado sin nombre 11" x1="509.66" y1="387.14" x2="551.4" y2="341" xlink:href="#Degradado_sin_nombre_11"/>
    <linearGradient id="Degradado_sin_nombre_11-7" data-name="Degradado sin nombre 11" x1="532.86" y1="660.5" x2="562.22" y2="628.05" xlink:href="#Degradado_sin_nombre_11"/>
    <linearGradient id="Degradado_sin_nombre_11-8" data-name="Degradado sin nombre 11" x1="513.05" y1="507.14" x2="593.43" y2="418.29" xlink:href="#Degradado_sin_nombre_11"/>
    <linearGradient id="Degradado_sin_nombre_11-9" data-name="Degradado sin nombre 11" x1="508.18" y1="617.5" x2="596.71" y2="519.65" xlink:href="#Degradado_sin_nombre_11"/>
    <linearGradient id="Degradado_sin_nombre_11-10" data-name="Degradado sin nombre 11" x1="586.97" y1="372.55" x2="621.97" y2="333.86" xlink:href="#Degradado_sin_nombre_11"/>
    <linearGradient id="Degradado_sin_nombre_11-11" data-name="Degradado sin nombre 11" x1="596.93" y1="689.88" x2="656.2" y2="624.36" xlink:href="#Degradado_sin_nombre_11"/>
    <linearGradient id="Degradado_sin_nombre_11-12" data-name="Degradado sin nombre 11" x1="624.36" y1="501.91" x2="698.21" y2="420.29" xlink:href="#Degradado_sin_nombre_11"/>
    <linearGradient id="Degradado_sin_nombre_11-13" data-name="Degradado sin nombre 11" x1="614.1" y1="621.38" x2="707.1" y2="518.6" xlink:href="#Degradado_sin_nombre_11"/>
  </defs>
  <path class="cls-4" d="M500,1000C224.3,1000,0,775.7,0,500S224.3,0,500,0s500,224.3,500,500-224.3,500-500,500ZM500,25.21C238.2,25.21,25.21,238.2,25.21,500s212.99,474.79,474.79,474.79,474.79-212.99,474.79-474.79S761.8,25.21,500,25.21Z"/>
  <g>
    <path class="cls-4" d="M385.06,413.47c-8.78,28.6-13.59,57.86-14.72,88.35h-85.71v-5.04c1.37-8.68,2.52-17.39,4.18-26.02,3.73-19.33,10.3-37.7,19.45-55.13.63-1.2,2.38-2.58,3.62-2.58.49,0,.98-.01,1.47-.01,23.29-.14,46.6-.08,69.89-.05.39,0,.79.2,1.82.48Z"/>
    <path class="cls-4" d="M284.62,527.04h85.68c1.19,30.29,5.91,59.67,14.94,88.89h-4.94c-22.25,0-44.5-.05-66.75.06-2.85.01-4.45-.74-5.81-3.43-12.3-24.36-19.86-50.06-22.38-77.23-.1-1.09-.48-2.16-.73-3.24,0-1.68,0-3.36,0-5.04Z"/>
    <path class="cls-4" d="M603.98,527.39c-.82,9.28-1.41,18.43-2.47,27.53-2.28,19.49-6.42,38.59-12.66,57.21-.74,2.2-1.33,3.9-4.41,3.87-23.09-.15-46.19-.08-69.29-.09-.67,0-1.36-.13-2.44-.23v-88.29h91.27Z"/>
    <path class="cls-4" d="M486.94,413.2v88.23h-91.06c.49-7.46.68-14.96,1.56-22.38,2.53-21.28,6.51-42.26,13.47-62.6.71-2.08,1.32-3.6,4.18-3.59,23.24.15,46.47.08,69.71.09.55,0,1.1.13,2.15.25Z"/>
    <path class="cls-4" d="M603.76,500.54c.01.24-.18.49-.37.97h-90.63v-88.27c1.13-.09,2.32-.29,3.51-.29,22.54-.02,45.07.02,67.62-.07,2.61-.01,3.94.65,4.83,3.31,9.19,27.38,13.58,55.61,15.05,84.37Z"/>
    <path class="cls-4" d="M486.93,527.47v88.18c-1.23.09-2.43.27-3.64.27-3.25,0-6.5,0-9.75.01-19.29,0-38.58-.01-57.87.04-2.34,0-3.71-.42-4.62-2.98-6.15-17.19-11.55-43.34-13.87-65.9-.72-7.01-1.14-13.68-1.19-19.63h90.94Z"/>
    <path class="cls-4" d="M714.88,501.45h-85.58c-1.16-30.08-5.84-59.24-14.81-88.2,1.91-.14,3.22-.31,4.54-.31,22.39-.02,44.79.04,67.18-.08,2.94-.02,4.42.93,5.75,3.54,13.25,26.02,20.68,53.61,22.91,82.67.05.68.01,1.39.01,2.38Z"/>
    <path class="cls-4" d="M715.38,527.31c-1.28,9.37-2.21,18.51-3.84,27.51-3.71,20.33-10.3,39.74-19.98,58.02-.73,1.38-2.76,2.95-4.19,2.96-23.37.18-46.75.13-70.12.12-.66,0-1.34-.17-2.71-.36,8.84-28.77,13.65-58.03,14.76-88.25h86.08Z"/>
    <path class="cls-4" d="M450.67,304.45c-8.37,9.65-16.88,18.75-24.55,28.5-12.17,15.44-21.88,32.44-29.6,50.52-1.39,3.25-3.14,4.14-6.52,4.12-21.12-.15-42.25-.07-64.4-.07,32.29-42.89,73.63-70.51,125.07-83.06Z"/>
    <path class="cls-4" d="M673.49,387.33c-1.41.06-2.59.17-3.77.17-20.44.01-40.86-.05-61.3.08-2.72.01-3.89-1-4.91-3.33-12.83-29.43-30.31-55.68-53.66-77.87-.45-.43-.79-.99-1.37-1.72,50.29,10.44,97.95,43.8,125.01,82.66Z"/>
    <path class="cls-4" d="M674.13,641.35c-14.72,19.5-31.28,35.81-49.85,49.01-22.34,15.88-47.59,27.25-76.04,34.25.92-1.19,1.3-1.83,1.81-2.33,14.38-13.7,26.54-28.94,36.75-45.54,6.06-9.87,11.42-20.2,16.16-30.98,1.58-3.59,3.41-4.55,7.13-4.51,19.61.19,39.23.08,58.84.08h5.2Z"/>
    <path class="cls-4" d="M451.44,724.58c-52.12-12.63-93.4-40.3-125.67-82.93,1.48-.13,2.37-.28,3.26-.28,20.71-.01,41.42.02,62.13-.05,2.33,0,3.73.46,4.77,2.85,12.94,29.69,30.52,56.2,54.12,78.56.38.36.63.84,1.39,1.86Z"/>
    <path class="cls-4" d="M486.91,309.57v77.7h-63.44c2.88-17.73,44.33-68.62,63.44-77.7Z"/>
    <path class="cls-4" d="M576.64,387.09h-63.95v-77.27c15.36,4.72,52.45,49.43,63.95,77.27Z"/>
    <path class="cls-4" d="M486.99,641.52v78.46c-28.82-20.55-49.05-47.13-64.3-78.46h64.3Z"/>
    <path class="cls-4" d="M576.89,641.71c-4.23,8.65-8.84,16.94-13.91,24.84-13.17,20.56-29.43,38.5-50.07,53.3v-78.13h63.98Z"/>
    <path class="cls-14" d="M383.23,412.99c.39,0,.79.2,1.82.48-8.78,28.6-13.59,57.86-14.72,88.35h-7.94c-20.46-30-36.79-60.67-49.05-88.78,23.29-.14,46.6-.08,69.89-.05Z"/>
    <path class="cls-5" d="M396.52,383.47c-1.39,3.25-3.14,4.14-6.52,4.12-21.12-.15-42.25-.07-64.4-.07,32.29-42.89,73.63-70.51,125.07-83.06-8.37,9.65-16.88,18.75-24.55,28.5-12.17,15.44-21.88,32.44-29.6,50.52Z"/>
    <path class="cls-11" d="M423.47,387.28c2.88-17.73,44.33-68.62,63.44-77.7v77.7h-63.44Z"/>
    <path class="cls-8" d="M395.99,527.47h90.94v88.18c-1.23.09-2.43.27-3.64.27-3.25,0-6.5,0-9.75.01-12.78-8.97-25.15-18.6-36.85-28.9-14.18-12.48-27.34-25.92-39.5-39.94-.72-7.01-1.14-13.68-1.19-19.63Z"/>
    <path class="cls-9" d="M484.79,412.95c.55,0,1.1.13,2.15.25v88.23h-91.06c.49-7.46.68-14.96,1.56-22.38,2.53-21.28,6.51-42.26,13.47-62.6.71-2.08,1.32-3.6,4.18-3.59,23.24.15,46.47.08,69.71.09Z"/>
    <path class="cls-3" d="M576.64,387.09h-63.95v-77.27c15.36,4.72,52.45,49.43,63.95,77.27Z"/>
    <path class="cls-1" d="M514.26,641.71h62.62c-4.23,8.65-8.84,16.94-13.91,24.84-16.07-7.28-32.48-15.56-48.72-24.84Z"/>
    <path class="cls-7" d="M588.71,416.18c9.19,27.38,13.58,55.61,15.05,84.37.01.24-.18.49-.37.97h-90.63v-88.27c1.13-.09,2.32-.29,3.51-.29,22.54-.02,45.07.02,67.62-.07,2.61-.01,3.94.65,4.83,3.31Z"/>
    <path class="cls-6" d="M584.44,616.01c-23.09-.15-46.19-.08-69.29-.09-.67,0-1.36-.13-2.44-.23v-88.29h91.27c-.82,9.28-1.41,18.43-2.47,27.53-2.28,19.49-6.42,38.59-12.66,57.21-.74,2.2-1.33,3.9-4.41,3.87Z"/>
    <path class="cls-10" d="M549.85,306.38c-.45-.43-.79-.99-1.37-1.72,50.29,10.44,97.95,43.8,125.01,82.66-1.41.06-2.59.17-3.77.17-20.44.01-40.86-.05-61.3.08-2.72.01-3.89-1-4.91-3.33-12.83-29.43-30.31-55.68-53.66-77.87Z"/>
    <path class="cls-13" d="M668.93,641.35h5.2c-14.72,19.5-31.28,35.81-49.85,49.01-11.89-3.83-24.48-8.37-37.48-13.61,6.06-9.87,11.42-20.2,16.16-30.98,1.58-3.59,3.41-4.55,7.13-4.51,19.61.19,39.23.08,58.84.08Z"/>
    <path class="cls-2" d="M686.21,412.86c2.94-.02,4.42.93,5.75,3.54,13.25,26.02,20.68,53.61,22.91,82.67.05.68.01,1.39.01,2.38h-85.58c-1.16-30.08-5.84-59.24-14.81-88.2,1.91-.14,3.22-.31,4.54-.31,22.39-.02,44.79.04,67.18-.08Z"/>
    <path class="cls-12" d="M715.38,527.31c-1.28,9.37-2.21,18.51-3.84,27.51-3.71,20.33-10.3,39.74-19.98,58.02-.73,1.38-2.76,2.95-4.19,2.96-23.37.18-46.75.13-70.12.12-.66,0-1.34-.17-2.71-.36,8.84-28.77,13.65-58.03,14.76-88.25h86.08Z"/>
  </g>
</svg>