<?xml version="1.0" encoding="UTF-8"?>
<svg id="Capa_1" data-name="Capa 1" xmlns="http://www.w3.org/2000/svg" xmlns:xlink="http://www.w3.org/1999/xlink" viewBox="0 0 1000 1000">
  <defs>
    <style>
      .cls-1 {
        fill: #000;
      }

      .cls-1, .cls-2 {
        stroke-width: 0px;
      }

      .cls-2 {
        fill: url(#Degradado_sin_nombre_11);
        opacity: .3;
      }
    </style>
    <linearGradient id="Degradado_sin_nombre_11" data-name="Degradado sin nombre 11" x1="500.83" y1="616.64" x2="879.31" y2="198.32" gradientUnits="userSpaceOnUse">
      <stop offset="0" stop-color="#fff"/>
      <stop offset="1" stop-color="#fff" stop-opacity="0"/>
    </linearGradient>
  </defs>
  <path class="cls-1" d="M1000,523.13c.16-36.47-10.78-69.6-28.84-100.91-15.45-26.74-39.23-45.81-60.53-67.15-2.83-2.83-6.45-4.86-11.38-8.52,6.52-2.29,9.22-3.21,11.92-4.23,17.1-6.42,32.05-15.9,42.51-31.25,13.04-19.17,8.58-38.47-11.76-49.18-19.27-10.14-40.22-12.88-61.55-11.06-21.14,1.84-30.27,11.35-33.7,32.52-.35,2.35-.86,4.67-1.56,8.33-29.47-28.39-57.74-55.7-86.13-82.89-24.83-23.81-54.62-36.05-88.96-36.12-113.25-.19-226.5-.19-339.74,0-32.24.06-60.5,10.68-84.44,31.67-1.56,1.37-3.08,2.77-4.61,4.2-26.13,24.96-52.05,50.11-78.08,75.13-2.51,2.42-5.15,4.67-8.49,7.66-.79-4.93-1.34-8.71-2.07-12.46-2.7-14.15-10.68-24.1-24.96-26.67-25.37-4.64-50.04-1.3-72.65,11.51-15.8,8.93-20.63,24.99-11.95,41.01,4.51,8.33,11.03,16.41,18.57,22.03,10.75,7.98,23.24,13.64,33.38,19.36-8.17,8.93-16.79,19.58-26.64,28.9-21.52,20.32-40.5,42.6-51.25,70.39-7.09,18.28-11.48,37.64-17.07,56.53v156.23c4.93,23.88,13.42,46.04,29.98,64.57,1.81,2.03,1.88,6.07,1.94,9.16.19,13.03-.16,26.04.13,39.07.76,32.43,19.55,53.67,51.92,55.61,24.93,1.49,50.07.99,75.03-.48,24.7-1.46,43.72-21.56,46.42-46.26.64-5.75.99-11.54,1.49-17.68h586.81c0,1.37-.03,2.7-.03,3.97-.03,2.38-.06,4.67.06,6.96,1.81,31.16,20.13,51.54,51.12,53.35,25.56,1.49,51.41,1.05,77-.48,9.82-.57,18.98-4.51,26.45-10.65,10.33-8.43,17.42-21.05,18.54-34.72,1.3-16.18.57-32.52,1.24-48.74.16-3.91,1.4-8.49,3.78-11.41,19.17-23.37,28.26-50.01,28.11-80.15-.22-39.04-.19-78.12,0-117.16ZM168.16,350.14c32.4-31.28,64.67-62.66,97.07-93.95,2.26-2.16,4.48-4.36,6.74-6.52,16.88-16.34,37.13-24.51,60.69-24.51,111.63.03,223.22.03,334.82,0,23.56,0,43.78,8.3,60.66,24.64,34.62,33.45,69.18,66.99,103.77,100.5,2.26,2.19,4.36,4.58,7.6,7.98H162.4c-.76-.89-1.56-1.81-2.32-2.7,2.7-1.78,5.75-3.24,8.08-5.44ZM44.19,515.88c-7.76-22.61-3.08-43.43,13.83-60.15,15.23-15.07,33.8-20,54.68-12.46,35.93,12.94,67.94,32.3,95.98,58.18,4.48,4.13,8.46,9.03,11.86,14.15,9.38,14.18,5.69,26.29-10.81,30.78-14.62,3.97-29.89,5.91-44.99,7.54-10.62,1.14-21.43.22-32.14.22-.03.35-.03.7-.03,1.05-14.91-.76-29.95-.57-44.73-2.45-22.03-2.83-36.56-16.21-43.65-36.85ZM218.39,705.4c-27.31,0-54.65-.35-81.96.19-20.38.41-37.48-7.47-52.75-19.52-18.5-14.62-21.84-34.05-11.22-54.88,2.51-4.93,5.47-7.15,11.25-7.12,30.9.29,61.81.03,92.71.29,3.24,0,7.54,1.02,9.51,3.21,22.22,24.99,44.13,50.33,68.07,77.83h-35.61ZM728.45,513.28c1.08,20.41-3.43,39.33-12.27,57.23-7.15,14.56-16.72,27.44-32.46,33.48-7.09,2.73-15.07,4.29-22.67,4.29-47.12.13-94.24.16-141.32.19-60.25,0-120.5,0-180.75.1-19.11.03-33.86-7.6-45.27-22.45-16.34-21.17-22.45-45.5-22.54-72.84h457.28ZM660.09,704.93c-2.89.29-5.82.45-8.74.45-100.82.03-201.63.22-302.45-.06-34.11-.1-57.45-22.67-59.33-56.85h419.86c2.73,25.53-19.71,52.05-46.61,56.15-.89.13-1.81.22-2.73.32ZM758.84,705.4h-12.78c4.77-5.5,7.85-9.06,10.97-12.62,18.15-20.86,36.15-41.87,54.72-62.32,2.99-3.31,8.62-5.82,13.07-5.91,30.24-.51,60.5-.1,90.74-.38,6.04-.06,9.38,1.94,12.08,7.34,10.33,20.57,7.22,39.71-10.87,54.11-15.45,12.34-32.78,20.38-53.51,20.03-34.78-.57-69.6-.22-104.41-.25ZM955.84,515.66c-7.19,20.98-21.91,34.5-44.45,37.17-14.47,1.72-29.15,1.62-43.75,2.32-.1.51-.19,1.05-.25,1.56-23.5-2.7-46.99-5.31-70.45-8.17-3.15-.38-6.26-1.72-9.22-2.99-13.64-5.91-17.87-16.09-9.22-27.95,7.95-10.87,17.65-20.89,28.17-29.31,23.91-19.2,50.42-34.24,79.42-44.73,21.59-7.79,40.7-3.15,56.37,12.69,16.47,16.63,20.98,37.23,13.38,59.42Z"/>
  <path class="cls-2" d="M1000,523.13c.16-36.47-10.78-69.6-28.84-100.91-15.45-26.74-39.23-45.81-60.53-67.15-2.83-2.83-6.45-4.86-11.38-8.52,6.52-2.29,9.22-3.21,11.92-4.23,17.1-6.42,32.05-15.9,42.51-31.25,13.04-19.17,8.58-38.47-11.76-49.18-19.27-10.14-40.22-12.88-61.55-11.06-21.14,1.84-30.27,11.35-33.7,32.52-.35,2.35-.86,4.67-1.56,8.33-29.47-28.39-57.74-55.7-86.13-82.89-24.83-23.81-54.62-36.05-88.96-36.12-113.25-.19-226.5-.19-339.74,0-32.24.06-60.5,10.68-84.44,31.67,5.37,16.25,11.83,33.64,19.39,51.85,2.26-2.16,4.48-4.36,6.74-6.52,16.88-16.34,37.13-24.51,60.69-24.51,111.63.03,223.22.03,334.82,0,23.56,0,43.78,8.3,60.66,24.64,34.62,33.45,69.18,66.99,103.77,100.5,2.26,2.19,4.36,4.58,7.6,7.98H315.14c28.96,51.41,65.02,104.73,108.29,154.99h305.03c1.08,20.41-3.43,39.33-12.27,57.23-7.15,14.56-16.72,27.44-32.46,33.48-7.09,2.73-15.07,4.29-22.67,4.29-47.12.13-94.24.16-141.32.19.32.25.64.54.95.79,16.56,13.7,33.83,26.77,51.57,39.2h137.19c2.73,25.53-19.71,52.05-46.61,56.15,40.35,22.16,81.36,41.36,121.04,57.55,3.27,1.37,6.55,2.7,9.82,3.97,56.78,22.67,110.39,39.07,154.64,49.18,10.33-8.43,17.42-21.05,18.54-34.72,1.3-16.18.57-32.52,1.24-48.74.16-3.91,1.4-8.49,3.78-11.41,19.17-23.37,28.26-50.01,28.11-80.15-.22-39.04-.19-78.12,0-117.16ZM916.76,685.63c-15.45,12.34-32.78,20.38-53.51,20.03-34.78-.57-69.6-.22-104.41-.25h-12.78c4.77-5.5,7.85-9.06,10.97-12.62,18.15-20.86,36.15-41.87,54.72-62.32,2.99-3.31,8.62-5.82,13.07-5.91,30.24-.51,60.5-.1,90.74-.38,6.04-.06,9.38,1.94,12.08,7.34,10.33,20.57,7.22,39.71-10.87,54.11ZM955.84,515.66c-7.19,20.98-21.91,34.5-44.45,37.17-14.47,1.72-29.15,1.62-43.75,2.32-.1.51-.19,1.05-.25,1.56-23.5-2.7-46.99-5.31-70.45-8.17-3.15-.38-6.26-1.72-9.22-2.99-13.64-5.91-17.87-16.09-9.22-27.95,7.95-10.87,17.65-20.89,28.17-29.31,23.91-19.2,50.42-34.24,79.42-44.73,21.59-7.79,40.7-3.15,56.37,12.69,16.47,16.63,20.98,37.23,13.38,59.42Z"/>
</svg>