<?xml version="1.0" encoding="UTF-8"?>
<svg id="Capa_1" data-name="Capa 1" xmlns="http://www.w3.org/2000/svg" xmlns:xlink="http://www.w3.org/1999/xlink" viewBox="0 0 1000 1000">
  <defs>
    <style>
      .cls-1 {
        fill: #000;
      }

      .cls-1, .cls-2, .cls-3 {
        stroke-width: 0px;
      }

      .cls-2 {
        fill: url(#Degradado_sin_nombre_11-2);
      }

      .cls-2, .cls-3 {
        opacity: .3;
      }

      .cls-3 {
        fill: url(#Degradado_sin_nombre_11);
      }
    </style>
    <linearGradient id="Degradado_sin_nombre_11" data-name="Degradado sin nombre 11" x1="234.79" y1="454.79" x2="697.75" y2="-56.9" gradientUnits="userSpaceOnUse">
      <stop offset="0" stop-color="#fff"/>
      <stop offset="1" stop-color="#fff" stop-opacity="0"/>
    </linearGradient>
    <linearGradient id="Degradado_sin_nombre_11-2" data-name="Degradado sin nombre 11" x1="709.65" y1="823.83" x2="935.09" y2="574.66" xlink:href="#Degradado_sin_nombre_11"/>
  </defs>
  <g>
    <path class="cls-1" d="M803.8,525.22c-107.3-1.38-195.97,80.38-203.4,184.72-.31,4.09-.44,8.18-.5,12.26-1.07,111.45,87.42,201.51,199.24,202.7,66.67.76,126.35-32.14,162.96-83.08,23.33-32.39,37.3-72.08,37.86-115.03,1.38-109.24-87.11-200.12-196.16-201.57ZM833.8,823.14c-7.36,1.82-9.62,4.53-9.06,11.51.5,5.47.25,11.07-.13,16.6-.94,13.84-11.57,23.84-24.84,23.71-13.27-.13-23.9-10.38-24.47-24.15-.38-8.05-.06-16.23-.06-25.98-9.18,0-16.92.25-24.65-.06-15.1-.63-25.85-11.26-25.66-25.09.19-11.13,7.23-20.06,17.86-23.21,2.58-.76,5.41-1.2,8.43-1.26,19.18-.19,38.37,0,57.55-.13,10.57-.06,16.1-4.72,15.91-12.89-.13-7.8-5.47-12.01-15.53-12.2-3.59-.06-7.17.06-10.69,0-6.54-.13-13.15.31-19.5-.63-29.62-4.28-51.07-27.23-53.9-57.11-2.58-27.93,14.97-54.21,42.7-63.96,2.14-.75,4.34-1.51,7.42-2.58,0-8.11-.19-16.54.06-24.97.38-15.03,10.94-25.79,24.91-25.66,13.71.06,23.9,10.31,24.59,25.03.31,7.99.06,16.04.06,24.91,8.74,0,16.16-.13,23.58,0,15.35.31,26.1,10.25,26.54,24.21.44,13.9-9.81,25.09-25.03,25.6-20.19.69-40.38.25-60.57.31-7.8.06-13.58,3.14-13.96,11.64-.38,8.24,4.59,12.7,12.64,12.89,9.43.31,18.87.12,28.3-.06,32.01-.63,59.81,22.01,64.4,52.58,3.84,25.85-7.36,50.13-28.11,63.08-5.6,3.52-11.89,6.23-18.8,7.86Z"/>
    <path class="cls-1" d="M143.18,824.89c-43.28-.04-86.56-.02-129.84.01-3.05,0-6.1.37-12.63.79,7.63,11.52,12.51,22.07,20.17,29.9,40.74,41.63,81.94,82.82,123.58,123.54,7.83,7.66,18.38,12.52,27.68,18.68,1-.86,2-1.72,3-2.58v-8.59c0-43.28.03-86.56-.01-129.84-.02-23.03-8.89-31.88-31.94-31.9Z"/>
    <path class="cls-1" d="M623.11,545.41c-9.69,9.5-18.43,19.56-26.35,30.19h1.64c-1.26,2.39-2.14,4.66-3.52,6.54-17.99,25.91-30.76,54.21-37.92,84.91-.88,3.59-1.89,5.98-4.21,7.23-.5,2.58-1.01,5.22-1.45,7.8-2.2,12.96-3.4,26.23-3.52,39.62-.06,1.07,0,2.14,0,3.14h.31c12.96,143.4,89.56,226.48,230.44,251.76-10.31,13.4-26.29,18.36-42.2,23.4H224.61c0-51.38.63-102.83-.13-154.21-.5-37.55-32.77-69.75-70.25-70.31-51.38-.69-102.83-.13-154.21-.06V62.52c.25-.19.63-.38.69-.63C13.29,24.53,29.9,7.17,61.72,1.89c7.61-1.32,16.1-1.89,25.6-1.89h633.65c38.74.06,68.36,22.26,76.86,57.8,1.57,6.54,2.2,13.52,2.2,20.31.13,129.5.13,258.99.13,388.55,0,2.2-.19,4.47-.38,7.86-33.84,1.38-66.6,6.92-99.31,21.2-.06-.69-.06-1.38-.13-2.08-17.86,7.67-34.84,17.42-50.63,29.12v1.76h-2.26c-8.49,6.42-16.67,13.33-24.34,20.88Z"/>
  </g>
  <path class="cls-3" d="M596.75,575.6h1.64c-1.26,2.39-2.14,4.66-3.52,6.54-17.99,25.91-30.76,54.21-37.92,84.91-.88,3.59-1.89,5.98-4.21,7.23-.5,2.58-1.01,5.22-1.45,7.8-49.87-29.81-98.3-63.65-142.52-101.32C195.18,398.68,80.84,125.53,61.72,1.89c7.61-1.32,16.1-1.89,25.6-1.89h633.65c38.74.06,68.36,22.26,76.86,57.8,1.57,6.54,2.2,13.52,2.2,20.31.13,129.5.13,258.99.13,388.55,0,2.2-.19,4.47-.38,7.86-33.84,1.38-66.6,6.92-99.31,21.2-.06-.69-.06-1.38-.13-2.08-17.86,7.67-34.84,17.42-50.63,29.12v1.76h-2.26c-8.49,6.42-16.67,13.33-24.34,20.88-9.69,9.5-18.43,19.56-26.35,30.19Z"/>
  <path class="cls-2" d="M999.96,726.79c-.57,42.96-14.53,82.64-37.86,115.03-30.88-5.16-68.18-14.03-109.5-26.54,20.76-12.95,31.95-37.23,28.11-63.08-4.59-30.57-32.39-53.21-64.4-52.58-9.43.19-18.87.38-28.3.06-8.05-.19-13.02-4.65-12.64-12.89.38-8.49,6.16-11.57,13.96-11.64,20.19-.06,40.38.38,60.57-.31,15.22-.5,25.47-11.7,25.03-25.6-.44-13.96-11.2-23.9-26.54-24.21-7.42-.13-14.84,0-23.58,0,0-8.87.25-16.92-.06-24.91-.69-14.72-10.88-24.97-24.59-25.03-13.96-.13-24.53,10.63-24.91,25.66-.25,8.43-.06,16.86-.06,24.97-3.08,1.07-5.28,1.82-7.42,2.58-27.74,9.75-45.28,36.04-42.7,63.96,2.83,29.87,24.28,52.83,53.9,57.11,6.35.94,12.96.5,19.5.63,3.52.06,7.11-.06,10.69,0,10.06.19,15.41,4.4,15.53,12.2.19,8.18-5.35,12.83-15.91,12.89-19.18.13-38.37-.06-57.55.13-3.02.06-5.85.5-8.43,1.26-46.29-18.55-94.53-40.75-142.39-66.54,7.42-104.34,96.1-186.1,203.4-184.72,109.06,1.45,197.55,92.33,196.16,201.57Z"/>
</svg>