<?xml version="1.0" encoding="UTF-8"?>
<svg id="Capa_1" data-name="Capa 1" xmlns="http://www.w3.org/2000/svg" xmlns:xlink="http://www.w3.org/1999/xlink" viewBox="0 0 1000 1000">
  <defs>
    <style>
      .cls-1 {
        fill: #000;
      }

      .cls-1, .cls-2, .cls-3 {
        stroke-width: 0px;
      }

      .cls-2 {
        fill: url(#Degradado_sin_nombre_11-2);
      }

      .cls-2, .cls-3 {
        opacity: .3;
      }

      .cls-3 {
        fill: url(#Degradado_sin_nombre_11);
      }
    </style>
    <linearGradient id="Degradado_sin_nombre_11" data-name="Degradado sin nombre 11" x1="289.29" y1="457.45" x2="756.07" y2="-58.47" gradientUnits="userSpaceOnUse">
      <stop offset="0" stop-color="#fff"/>
      <stop offset="1" stop-color="#fff" stop-opacity="0"/>
    </linearGradient>
    <linearGradient id="Degradado_sin_nombre_11-2" data-name="Degradado sin nombre 11" x1="474.02" y1="766.5" x2="896.02" y2="300.07" xlink:href="#Degradado_sin_nombre_11"/>
  </defs>
  <path class="cls-1" d="M970.55,385.84v-12.82H29.45v13.05c0,175.71.7,351.3-.35,527.01-.35,50.69,35.89,87.15,86.45,86.92,256.34-.93,512.79-.93,769.25,0,41.71.23,73.4-24.7,82.96-61.4,2.1-7.69,3.15-15.96,3.15-24.58-.82-176.06-.35-352.11-.35-528.17ZM342.88,685.52h-214.28v-213.93h214.28v213.93Z"/>
  <path class="cls-1" d="M970.44,289.71c0,1.05-.58,2.1-1.05,3.73H29.68c0-41.48-1.4-81.68.35-121.76,1.4-31,20.04-55.7,46.61-66.88,9.56-4.08,20.16-6.29,31.35-6.41,32.16-.35,64.2,0,97.99,0v-51.85C206.09,14.97,220.89.05,252.34.05c9.56,0,19.11-.12,28.66,0,26.33.23,42.18,15.96,42.41,42.06.23,17.59.23,35.19.35,52.78,0,.7.58,1.4,1.17,2.8h351.65c0-18.41-.12-36.35,0-54.18.12-27.85,15.61-43.34,43.34-43.46,10.72,0,21.44-.12,32.16,0,25.52.35,41.71,16.43,41.95,41.71.12,18.29,0,36.59,0,56.63h24.35c24.47,0,48.94-.23,73.41,0,43.23.58,77.02,32.28,78.42,75.39,1.16,38.57.23,77.25.23,115.93Z"/>
  <path class="cls-3" d="M969.39,293.44H142.47c-30.65-69.79-52.55-135.28-65.83-188.64,9.56-4.08,20.16-6.29,31.35-6.41,32.16-.35,64.2,0,97.99,0v-51.85C206.09,14.97,220.89.05,252.34.05c9.56,0,19.11-.12,28.66,0,26.33.23,42.18,15.96,42.41,42.06.23,17.59.23,35.19.35,52.78,0,.7.58,1.4,1.17,2.8h351.65c0-18.41-.12-36.35,0-54.18.12-27.85,15.61-43.34,43.34-43.46,10.72,0,21.44-.12,32.16,0,25.52.35,41.71,16.43,41.95,41.71.12,18.29,0,36.59,0,56.63h24.35c24.47,0,48.94-.23,73.41,0,43.23.58,77.02,32.28,78.42,75.39,1.16,38.57.23,77.25.23,115.93,0,1.05-.58,2.1-1.05,3.73Z"/>
  <path class="cls-2" d="M970.9,914.01c0,8.62-1.05,16.89-3.15,24.58-69.09,17.13-375.65-78.88-582.23-281.27-14.8-14.45-29.01-29.48-42.64-44.86v-140.87h-105.68c-20.74-32.63-39.61-65.71-56.63-98.57h789.98v12.82c0,176.06-.47,352.12.35,528.17Z"/>
</svg>