<?xml version="1.0" encoding="UTF-8"?>
<svg id="Capa_1" data-name="Capa 1" xmlns="http://www.w3.org/2000/svg" xmlns:xlink="http://www.w3.org/1999/xlink" viewBox="0 0 1000 1000">
  <defs>
    <style>
      .cls-1 {
        fill: #000;
      }

      .cls-1, .cls-2, .cls-3, .cls-4 {
        stroke-width: 0px;
      }

      .cls-2 {
        fill: url(#Degradado_sin_nombre_11-2);
      }

      .cls-2, .cls-3, .cls-4 {
        opacity: .3;
      }

      .cls-3 {
        fill: url(#Degradado_sin_nombre_11-3);
      }

      .cls-4 {
        fill: url(#Degradado_sin_nombre_11);
      }
    </style>
    <linearGradient id="Degradado_sin_nombre_11" data-name="Degradado sin nombre 11" x1="326.25" y1="553.33" x2="655.96" y2="188.92" gradientUnits="userSpaceOnUse">
      <stop offset="0" stop-color="#fff"/>
      <stop offset="1" stop-color="#fff" stop-opacity="0"/>
    </linearGradient>
    <linearGradient id="Degradado_sin_nombre_11-2" data-name="Degradado sin nombre 11" x1="334.33" y1="323.7" x2="653.35" y2="-28.89" xlink:href="#Degradado_sin_nombre_11"/>
    <linearGradient id="Degradado_sin_nombre_11-3" data-name="Degradado sin nombre 11" x1="448.46" y1="1002.09" x2="787.04" y2="627.87" xlink:href="#Degradado_sin_nombre_11"/>
  </defs>
  <g>
    <path class="cls-1" d="M1000.72,1000H0c0-46.06-2.18-91.68.68-137.05,2.3-36.16,25.52-62.86,52.22-85.7,31.74-27.2,67.65-46.99,105.49-62.86,13.32-5.6,26.89-10.71,40.58-15.5,33.92-11.89,69.02-20.48,103.56-30.56,12.95-3.8,22.09-1.12,30.19,11.45,32.99,51.1,67.22,101.39,100.95,151.99,2.36,3.55,4.85,7.03,9.4,13.51,5.42-28.94,10.14-54.4,15-80.47-5.42-3.11-10.89-5.66-15.75-9.09-17.3-12.2-18.42-69.89-1.24-82.47,4.91-3.61,11.89-5.91,17.98-6.1,26.95-.62,53.9-.5,80.85-.19,17.61.19,28.51,10.58,29.5,28.13.69,12.57.62,25.21.06,37.78-.68,13.82-3.92,17.18-27.63,32.36,5.04,25.08,10.14,50.48,15.81,78.67,4.17-5.98,6.91-9.65,9.46-13.51,33.73-50.6,67.71-101.01,100.95-151.99,5.79-8.9,12.32-13.13,22.16-10.95,24.52,5.54,49.17,10.71,73.19,17.8,55.64,16.37,109.54,37.09,157.28,70.7,17.92,12.63,34.6,27.82,49.42,44,21.28,23.21,31.24,51.47,30.75,83.52-.56,38.59-.12,77.18-.12,116.51Z"/>
    <path class="cls-1" d="M791.98,124.12c-3.42,38.71-15,73.69-42.63,102.32-6.47,6.72-13.26,9.65-22.78,9.65-76.05-.44-152.05-.25-228.04-.25s-149.44-.19-224.18.25c-10.52.06-17.93-3.24-24.9-10.7-29.63-31.55-41.33-69.64-41.52-111.9-.06-13.51,8.59-23.46,19.29-29.07,26.02-13.63,51.91-29.19,79.79-37.22C368.57,29.33,431.18,15.08,493.67.77c10.64-2.43,23.09,1.49,34.42,3.73,65.16,12.95,130.01,27.2,191.75,52.22,18.74,7.59,36.53,17.92,53.84,28.5,13.94,8.46,19.79,21.78,18.3,38.9Z"/>
    <path class="cls-1" d="M250.26,278.22c-1.12,21.22,6.22,38.65,24.09,55.08,5.85,5.35,7.28,10.27,6.47,17.99-1.74,16.8-3.36,33.8-2.68,50.6,4.92,128.9,129.7,229.1,256.67,206.63,123.73-21.85,202.96-131.45,184.41-255.61-1.25-8.46.19-14.25,6.91-20.35,15.5-14.13,24.9-31.62,23.77-54.33H250.26ZM593.5,526.8c-57.13,38.71-134.19,37.78-189.64-1.62-61.93-44-77.68-116.51-68.15-157.03,53.59,16.24,108.73,20.35,164.31,20.29,55.27-.06,110.1-3.86,164.31-20.48,9.65,49.11-11.89,118.81-70.83,158.83Z"/>
  </g>
  <path class="cls-4" d="M250.26,278.22c-1.12,21.22,6.22,38.65,24.09,55.08,5.85,5.35,7.28,10.27,6.47,17.99-1.74,16.8-3.36,33.8-2.68,50.6,4.92,128.9,129.7,229.1,256.67,206.63,123.73-21.85,202.96-131.45,184.41-255.61-1.25-8.46.19-14.25,6.91-20.35,15.5-14.13,24.9-31.62,23.77-54.33H250.26ZM593.5,526.8c-57.13,38.71-134.19,37.78-189.64-1.62-61.93-44-77.68-116.51-68.15-157.03,53.59,16.24,108.73,20.35,164.31,20.29,55.27-.06,110.1-3.86,164.31-20.48,9.65,49.11-11.89,118.81-70.83,158.83Z"/>
  <path class="cls-2" d="M249.45,225.38c-29.63-31.55-41.33-69.64-41.52-111.9-.06-13.51,8.59-23.46,19.29-29.07,26.02-13.63,51.91-29.19,79.79-37.22C368.57,29.33,431.18,15.08,493.67.77c10.64-2.43,23.09,1.49,34.42,3.73,65.16,12.95,130.01,27.2,191.75,52.22,18.74,7.59,36.53,17.92,53.84,28.5,13.94,8.46,19.79,21.78,18.3,38.9-3.42,38.71-15,73.69-42.63,102.32-6.47,6.72-13.26,9.65-22.78,9.65-76.05-.44-152.05-.25-228.04-.25s-149.44-.19-224.18.25c-10.52.06-17.93-3.24-24.9-10.7Z"/>
  <path class="cls-3" d="M1000.72,1000h-414.01c-124.6-55.02-257.6-131.63-368.7-229.16-20.66-18.17-40.52-37.03-59.62-56.45,13.32-5.6,26.89-10.71,40.58-15.5,33.92-11.89,69.02-20.48,103.56-30.56,12.95-3.8,22.09-1.12,30.19,11.45,32.99,51.1,67.22,101.39,100.95,151.99,2.36,3.55,4.85,7.03,9.4,13.51,5.42-28.94,10.14-54.4,15-80.47-5.42-3.11-10.89-5.66-15.75-9.09-17.3-12.2-18.42-69.89-1.24-82.47,4.91-3.61,11.89-5.91,17.98-6.1,26.95-.62,53.9-.5,80.85-.19,17.61.19,28.51,10.58,29.5,28.13.69,12.57.62,25.21.06,37.78-.68,13.82-3.92,17.18-27.63,32.36,5.04,25.08,10.14,50.48,15.81,78.67,4.17-5.98,6.91-9.65,9.46-13.51,33.73-50.6,67.71-101.01,100.95-151.99,5.79-8.9,12.32-13.13,22.16-10.95,24.52,5.54,49.17,10.71,73.19,17.8,55.64,16.37,109.54,37.09,157.28,70.7,17.92,12.63,34.6,27.82,49.42,44,21.28,23.21,31.24,51.47,30.75,83.52-.56,38.59-.12,77.18-.12,116.51Z"/>
</svg>