<?xml version="1.0" encoding="UTF-8"?>
<svg id="Capa_1" data-name="Capa 1" xmlns="http://www.w3.org/2000/svg" xmlns:xlink="http://www.w3.org/1999/xlink" viewBox="0 0 1000 1000">
  <defs>
    <style>
      .cls-1 {
        fill: #000;
      }

      .cls-1, .cls-2, .cls-3 {
        stroke-width: 0px;
      }

      .cls-2 {
        fill: url(#Degradado_sin_nombre_11-2);
      }

      .cls-2, .cls-3 {
        opacity: .3;
      }

      .cls-3 {
        fill: url(#Degradado_sin_nombre_11);
      }
    </style>
    <linearGradient id="Degradado_sin_nombre_11" data-name="Degradado sin nombre 11" x1="464.45" y1="576.7" x2="819.35" y2="184.45" gradientUnits="userSpaceOnUse">
      <stop offset="0" stop-color="#fff"/>
      <stop offset="1" stop-color="#fff" stop-opacity="0"/>
    </linearGradient>
    <linearGradient id="Degradado_sin_nombre_11-2" data-name="Degradado sin nombre 11" x1="372.26" y1="244.19" x2="665.61" y2="-80.04" xlink:href="#Degradado_sin_nombre_11"/>
  </defs>
  <rect class="cls-1" x="198.24" y="175.13" width="605.67" height="655.58"/>
  <path class="cls-1" d="M804.51,138.29H199.82c-12.46-43.36,1.85-95.54,32.6-119.26,5.22-4.02,10.64-7.45,16.33-10.19C260.26,3.15,272.72.17,286.07.14c143.43-.09,286.89-.3,430.32.09,48.37.12,86.72,38.68,88.06,87.11.45,16.63.06,33.29.06,50.96Z"/>
  <path class="cls-1" d="M804,868.26H197.95c0,13.56-.06,26.14,0,38.74.27,54.39,38.38,92.71,92.59,92.92,37.16.15,74.32.03,111.48.03,103.68,0,207.35.15,311.03-.06,48.04-.06,85.14-32.24,90.65-79.54,1.94-16.81.3-34.03.3-52.09ZM537.61,951.19c-12.22.24-24.44.06-36.65.06-12.22-.03-24.44.18-36.65-.09-11.68-.27-18.83-7.03-19.04-17.25-.18-10.7,7.18-18.09,19.37-18.24,24.44-.33,48.87-.3,73.31-.03,12.34.15,19.61,7.3,19.55,18.03-.06,10.7-7.3,17.28-19.88,17.52Z"/>
  <path class="cls-3" d="M287.88,175.13h516.03v623.1c-93.84-39.63-217.22-117-312.55-230.66-96.29-114.79-163.87-266.42-203.48-392.44Z"/>
  <path class="cls-2" d="M804.51,138.29H276.86c-14.21-50.24-23.57-94.89-28.1-129.45C260.26,3.15,272.72.17,286.07.14c143.43-.09,286.89-.3,430.32.09,48.37.12,86.72,38.68,88.06,87.11.45,16.63.06,33.29.06,50.96Z"/>
</svg>