<?xml version="1.0" encoding="UTF-8"?>
<svg id="Capa_1" data-name="Capa 1" xmlns="http://www.w3.org/2000/svg" xmlns:xlink="http://www.w3.org/1999/xlink" viewBox="0 0 1000 1000">
  <defs>
    <style>
      .cls-1 {
        fill: #000;
      }

      .cls-1, .cls-2 {
        stroke-width: 0px;
      }

      .cls-2 {
        fill: url(#Degradado_sin_nombre_11);
        opacity: .3;
      }
    </style>
    <linearGradient id="Degradado_sin_nombre_11" data-name="Degradado sin nombre 11" x1="411.63" y1="547.64" x2="857.75" y2="54.55" gradientUnits="userSpaceOnUse">
      <stop offset="0" stop-color="#fff"/>
      <stop offset="1" stop-color="#fff" stop-opacity="0"/>
    </linearGradient>
  </defs>
  <path class="cls-1" d="M934.32,139.96c-1.83-12.9-11.07-23.53-23.62-27.02L508.77,1.18c-2.53-.74-5.1-1.13-7.67-1.18h-2.18c-2.61.04-5.19.44-7.67,1.18L202.7,81.4l-113.38,31.55c-12.55,3.49-21.83,14.12-23.62,27.02-2.35,16.73-55.51,412.83,80.87,609.87,136.26,196.78,337.27,247.2,345.77,249.29,2.53.61,5.1.87,7.67.87s5.14-.31,7.67-.87c7.89-1.96,181.75-45.58,315.66-209.38,10.28-12.59,20.35-25.88,30.07-39.91,136.43-197.05,83.23-593.14,80.92-609.87ZM485.02,645.34c-6.36,6.36-14.73,9.59-23.09,9.59s-16.73-3.22-23.09-9.59l-169.51-169.51c-6.14-6.14-9.59-14.47-9.59-23.14s3.44-16.95,9.59-23.09l33.64-33.64c6.93-6.93,16.25-10.11,25.32-9.5,7.63.52,15.08,3.66,20.92,9.5l112.73,112.73,217.39-217.39c6.14-6.14,14.42-9.59,23.09-9.59s16.99,3.44,23.14,9.59l33.64,33.64c12.77,12.77,12.77,33.47,0,46.23l-242.1,242.1-32.07,32.07Z"/>
  <path class="cls-2" d="M853.4,749.84c-9.72,14.03-19.78,27.32-30.07,39.91-96.13-36.08-210.34-95.12-306.24-176.48l242.1-242.1c12.77-12.77,12.77-33.47,0-46.23l-33.64-33.64c-6.14-6.14-14.47-9.59-23.14-9.59s-16.95,3.44-23.09,9.59l-217.39,217.39-112.73-112.73c-5.84-5.84-13.29-8.98-20.92-9.5-69.07-114.56-110.72-230.47-125.58-305.07L491.25,1.18c2.48-.74,5.05-1.13,7.67-1.18h2.18c2.57.04,5.14.44,7.67,1.18l401.93,111.77c12.55,3.49,21.79,14.12,23.62,27.02,2.31,16.73,55.51,412.83-80.92,609.87Z"/>
</svg>