<?xml version="1.0" encoding="UTF-8"?>
<svg id="Capa_1" data-name="Capa 1" xmlns="http://www.w3.org/2000/svg" xmlns:xlink="http://www.w3.org/1999/xlink" viewBox="0 0 1000 1000">
  <defs>
    <style>
      .cls-1 {
        fill: #000;
      }

      .cls-1, .cls-2, .cls-3 {
        stroke-width: 0px;
      }

      .cls-2 {
        fill: url(#Degradado_sin_nombre_11-2);
      }

      .cls-2, .cls-3 {
        opacity: .3;
      }

      .cls-3 {
        fill: url(#Degradado_sin_nombre_11);
      }
    </style>
    <linearGradient id="Degradado_sin_nombre_11" data-name="Degradado sin nombre 11" x1="411.47" y1="482.12" x2="607.59" y2="265.35" gradientUnits="userSpaceOnUse">
      <stop offset="0" stop-color="#fff"/>
      <stop offset="1" stop-color="#fff" stop-opacity="0"/>
    </linearGradient>
    <linearGradient id="Degradado_sin_nombre_11-2" data-name="Degradado sin nombre 11" x1="489.08" y1="611.97" x2="666.4" y2="416" xlink:href="#Degradado_sin_nombre_11"/>
  </defs>
  <path class="cls-1" d="M500,1000C224.3,1000,0,775.7,0,500S224.3,0,500,0s500,224.3,500,500-224.3,500-500,500ZM500,25.21C238.2,25.21,25.21,238.2,25.21,500s212.99,474.79,474.79,474.79,474.79-212.99,474.79-474.79S761.8,25.21,500,25.21Z"/>
  <g>
    <path class="cls-1" d="M697.71,452.03v-5.38h-395.42v5.48c0,73.83.29,147.61-.15,221.43-.15,21.3,15.08,36.62,36.33,36.52,107.7-.39,215.46-.39,323.21,0,17.53.1,30.84-10.38,34.86-25.8.88-3.23,1.32-6.71,1.32-10.33-.34-73.97-.15-147.95-.15-221.92ZM433.98,577.95h-90.03v-89.89h90.03v89.89Z"/>
    <path class="cls-1" d="M697.66,411.64c0,.44-.25.88-.44,1.57h-394.84c0-17.43-.59-34.32.15-51.16.59-13.02,8.42-23.4,19.58-28.1,4.01-1.71,8.47-2.64,13.17-2.69,13.51-.15,26.97,0,41.17,0v-21.79c.05-13.27,6.27-19.53,19.48-19.53,4.01,0,8.03-.05,12.04,0,11.06.1,17.72,6.71,17.82,17.67.1,7.39.1,14.79.15,22.18,0,.29.25.59.49,1.17h147.75c0-7.74-.05-15.27,0-22.76.05-11.7,6.56-18.21,18.21-18.26,4.5,0,9.01-.05,13.51,0,10.72.15,17.53,6.9,17.62,17.53.05,7.69,0,15.37,0,23.79h10.23c10.28,0,20.56-.1,30.84,0,18.16.25,32.36,13.56,32.95,31.67.49,16.2.1,32.46.1,48.71Z"/>
    <path class="cls-3" d="M697.22,413.21h-347.45c-12.88-29.33-22.08-56.84-27.66-79.26,4.01-1.71,8.47-2.64,13.17-2.69,13.51-.15,26.97,0,41.17,0v-21.79c.05-13.27,6.27-19.53,19.48-19.53,4.01,0,8.03-.05,12.04,0,11.06.1,17.72,6.71,17.82,17.67.1,7.39.1,14.79.15,22.18,0,.29.25.59.49,1.17h147.75c0-7.74-.05-15.27,0-22.76.05-11.7,6.56-18.21,18.21-18.26,4.5,0,9.01-.05,13.51,0,10.72.15,17.53,6.9,17.62,17.53.05,7.69,0,15.37,0,23.79h10.23c10.28,0,20.56-.1,30.84,0,18.16.25,32.36,13.56,32.95,31.67.49,16.2.1,32.46.1,48.71,0,.44-.25.88-.44,1.57Z"/>
    <path class="cls-2" d="M697.86,673.95c0,3.62-.44,7.1-1.32,10.33-29.03,7.2-157.84-33.14-244.64-118.18-6.22-6.07-12.19-12.39-17.92-18.85v-59.19h-44.4c-8.71-13.71-16.64-27.61-23.79-41.42h331.93v5.38c0,73.97-.2,147.95.15,221.92Z"/>
  </g>
</svg>