<?xml version="1.0" encoding="UTF-8"?>
<svg id="Capa_1" data-name="Capa 1" xmlns="http://www.w3.org/2000/svg" xmlns:xlink="http://www.w3.org/1999/xlink" viewBox="0 0 1000 1000">
  <defs>
    <style>
      .cls-1 {
        fill: #000;
      }

      .cls-1, .cls-2, .cls-3 {
        stroke-width: 0px;
      }

      .cls-2 {
        fill: url(#Degradado_sin_nombre_11-2);
      }

      .cls-2, .cls-3 {
        opacity: .3;
      }

      .cls-3 {
        fill: url(#Degradado_sin_nombre_11);
      }
    </style>
    <linearGradient id="Degradado_sin_nombre_11" data-name="Degradado sin nombre 11" x1="416.08" y1="481" x2="610.59" y2="266.01" gradientUnits="userSpaceOnUse">
      <stop offset="0" stop-color="#fff"/>
      <stop offset="1" stop-color="#fff" stop-opacity="0"/>
    </linearGradient>
    <linearGradient id="Degradado_sin_nombre_11-2" data-name="Degradado sin nombre 11" x1="615.6" y1="636.06" x2="710.32" y2="531.37" xlink:href="#Degradado_sin_nombre_11"/>
  </defs>
  <path class="cls-1" d="M500,1000C224.3,1000,0,775.7,0,500S224.3,0,500,0s500,224.3,500,500-224.3,500-500,500ZM500,25.21C238.2,25.21,25.21,238.2,25.21,500s212.99,474.79,474.79,474.79,474.79-212.99,474.79-474.79S761.8,25.21,500,25.21Z"/>
  <g>
    <g>
      <path class="cls-1" d="M655.15,510.6c-45.08-.58-82.34,33.77-85.46,77.61-.13,1.72-.18,3.44-.21,5.15-.45,46.83,36.73,84.67,83.72,85.17,28.01.32,53.09-13.5,68.47-34.91,9.8-13.61,15.67-30.28,15.91-48.33.58-45.9-36.6-84.09-82.42-84.69ZM667.76,635.77c-3.09.77-4.04,1.9-3.81,4.84.21,2.3.11,4.65-.05,6.98-.4,5.81-4.86,10.02-10.44,9.96-5.58-.05-10.04-4.36-10.28-10.15-.16-3.38-.03-6.82-.03-10.91-3.86,0-7.11.11-10.36-.03-6.34-.26-10.86-4.73-10.78-10.54.08-4.68,3.04-8.43,7.51-9.75,1.08-.32,2.27-.5,3.54-.53,8.06-.08,16.12,0,24.18-.05,4.44-.03,6.77-1.98,6.69-5.42-.05-3.28-2.3-5.05-6.53-5.13-1.51-.03-3.01.03-4.49,0-2.75-.05-5.52.13-8.19-.26-12.45-1.8-21.46-11.44-22.65-23.99-1.08-11.73,6.29-22.78,17.94-26.88.9-.32,1.82-.63,3.12-1.08,0-3.41-.08-6.95.03-10.49.16-6.32,4.6-10.83,10.47-10.78,5.76.03,10.04,4.33,10.33,10.52.13,3.36.03,6.74.03,10.46,3.67,0,6.79-.05,9.91,0,6.45.13,10.97,4.31,11.15,10.17.19,5.84-4.12,10.54-10.52,10.76-8.48.29-16.97.11-25.45.13-3.28.03-5.71,1.32-5.87,4.89-.16,3.46,1.93,5.34,5.31,5.42,3.96.13,7.93.05,11.89-.03,13.45-.26,25.13,9.25,27.06,22.09,1.61,10.86-3.09,21.06-11.81,26.51-2.35,1.48-4.99,2.62-7.9,3.3Z"/>
      <path class="cls-1" d="M377.58,636.51c-18.19-.02-36.37-.01-54.56,0-1.28,0-2.56.15-5.31.33,3.21,4.84,5.26,9.27,8.48,12.56,17.12,17.49,34.43,34.8,51.93,51.91,3.29,3.22,7.72,5.26,11.63,7.85.42-.36.84-.72,1.26-1.09v-3.61c0-18.18.01-36.37,0-54.56-.01-9.67-3.74-13.39-13.42-13.4Z"/>
      <path class="cls-1" d="M579.23,519.08c-4.07,3.99-7.74,8.22-11.07,12.68h.69c-.53,1-.9,1.96-1.48,2.75-7.56,10.89-12.92,22.78-15.93,35.67-.37,1.51-.79,2.51-1.77,3.04-.21,1.08-.42,2.19-.61,3.28-.93,5.44-1.43,11.02-1.48,16.65-.03.45,0,.9,0,1.32h.13c5.44,60.25,37.63,95.16,96.82,105.78-4.33,5.63-11.05,7.72-17.73,9.83h-215c0-21.59.26-43.21-.05-64.8-.21-15.78-13.77-29.31-29.52-29.54-21.59-.29-43.21-.05-64.8-.03v-299.53c.11-.08.26-.16.29-.26,5.29-15.7,12.26-22.99,25.63-25.21,3.2-.56,6.77-.79,10.76-.79h266.24c16.28.03,28.72,9.35,32.29,24.29.66,2.75.93,5.68.93,8.54.05,54.41.05,108.82.05,163.26,0,.93-.08,1.88-.16,3.3-14.22.58-27.99,2.91-41.73,8.91-.03-.29-.03-.58-.05-.87-7.51,3.22-14.64,7.32-21.27,12.23v.74h-.95c-3.57,2.7-7,5.6-10.23,8.77Z"/>
    </g>
    <path class="cls-3" d="M568.16,531.76h.69c-.53,1-.9,1.96-1.48,2.75-7.56,10.89-12.92,22.78-15.93,35.67-.37,1.51-.79,2.51-1.77,3.04-.21,1.08-.42,2.19-.61,3.28-20.96-12.53-41.3-26.74-59.88-42.57-89.74-76.5-137.78-191.27-145.82-243.22,3.2-.56,6.77-.79,10.76-.79h266.24c16.28.03,28.72,9.35,32.29,24.29.66,2.75.93,5.68.93,8.54.05,54.41.05,108.82.05,163.26,0,.93-.08,1.88-.16,3.3-14.22.58-27.99,2.91-41.73,8.91-.03-.29-.03-.58-.05-.87-7.51,3.22-14.64,7.32-21.27,12.23v.74h-.95c-3.57,2.7-7,5.6-10.23,8.77-4.07,3.99-7.74,8.22-11.07,12.68Z"/>
    <path class="cls-2" d="M737.58,595.29c-.24,18.05-6.1,34.72-15.91,48.33-12.98-2.17-28.65-5.89-46.01-11.15,8.72-5.44,13.42-15.64,11.81-26.51-1.93-12.84-13.61-22.36-27.06-22.09-3.96.08-7.93.16-11.89.03-3.38-.08-5.47-1.96-5.31-5.42.16-3.57,2.59-4.86,5.87-4.89,8.48-.03,16.97.16,25.45-.13,6.39-.21,10.7-4.92,10.52-10.76-.19-5.87-4.7-10.04-11.15-10.17-3.12-.05-6.24,0-9.91,0,0-3.73.11-7.11-.03-10.46-.29-6.18-4.57-10.49-10.33-10.52-5.87-.05-10.31,4.47-10.47,10.78-.11,3.54-.03,7.08-.03,10.49-1.29.45-2.22.77-3.12,1.08-11.65,4.1-19.03,15.14-17.94,26.88,1.19,12.55,10.2,22.2,22.65,23.99,2.67.4,5.44.21,8.19.26,1.48.03,2.99-.03,4.49,0,4.23.08,6.47,1.85,6.53,5.13.08,3.44-2.25,5.39-6.69,5.42-8.06.05-16.12-.03-24.18.05-1.27.03-2.46.21-3.54.53-19.45-7.8-39.72-17.12-59.83-27.96,3.12-43.84,40.38-78.19,85.46-77.61,45.82.61,83,38.79,82.42,84.69Z"/>
  </g>
</svg>