<?xml version="1.0" encoding="UTF-8"?>
<svg id="Capa_1" data-name="Capa 1" xmlns="http://www.w3.org/2000/svg" xmlns:xlink="http://www.w3.org/1999/xlink" viewBox="0 0 1000 1000">
  <defs>
    <style>
      .cls-1 {
        fill: #000;
      }

      .cls-1, .cls-2, .cls-3 {
        stroke-width: 0px;
      }

      .cls-2 {
        fill: url(#Degradado_sin_nombre_11-2);
      }

      .cls-2, .cls-3 {
        opacity: .3;
      }

      .cls-3 {
        fill: url(#Degradado_sin_nombre_11);
      }
    </style>
    <linearGradient id="Degradado_sin_nombre_11" data-name="Degradado sin nombre 11" x1="418.95" y1="472.79" x2="561.48" y2="315.25" gradientUnits="userSpaceOnUse">
      <stop offset="0" stop-color="#fff"/>
      <stop offset="1" stop-color="#fff" stop-opacity="0"/>
    </linearGradient>
    <linearGradient id="Degradado_sin_nombre_11-2" data-name="Degradado sin nombre 11" x1="510.71" y1="634.39" x2="616.46" y2="517.52" xlink:href="#Degradado_sin_nombre_11"/>
  </defs>
  <path class="cls-1" d="M500,1000C224.3,1000,0,775.7,0,500S224.3,0,500,0s500,224.3,500,500-224.3,500-500,500ZM500,25.21C238.2,25.21,25.21,238.2,25.21,500s212.99,474.79,474.79,474.79,474.79-212.99,474.79-474.79S761.8,25.21,500,25.21Z"/>
  <g>
    <path class="cls-1" d="M680.06,672.02c0,.53-.02,1.06-.05,1.59-.79,18.14-11.57,31.99-27.26,35.44-3.07.67-6.32.72-9.49.74-50.33.03-100.65.02-150.98.02-49.99.02-99.99-.56-149.96.27-22.62.37-37.79-16.49-38.06-36.73-.39-26.82-.37-53.68,0-80.5.21-14.7,7.26-25.51,20.31-32.92,25.4-14.45,51.64-25.59,78.79-33.21,31.03-8.72,63.22-12.86,96.64-12.09,58.37,1.36,112.59,17.58,162.79,47.24,11.88,7.01,17.11,18.27,17.26,31.64.27,26.17.29,52.35.02,78.51Z"/>
    <path class="cls-1" d="M594.04,392.3c-.27,56.28-45.78,101.71-101.92,101.73-56.28.02-101.98-45.85-101.9-102.24.08-56.47,45.72-101.98,102.18-101.87,56.36.11,101.9,45.97,101.65,102.38Z"/>
    <path class="cls-3" d="M390.22,391.79c.08-56.47,45.72-101.98,102.18-101.87,56.36.11,101.9,45.97,101.65,102.38-.27,56.28-45.78,101.71-101.92,101.73-56.28.02-101.98-45.85-101.9-102.24Z"/>
    <path class="cls-2" d="M680.06,672.02c0,.53-.02,1.06-.05,1.59-40.79.85-164.31-39.54-249.44-118.84-9.57-8.91-18.64-18.32-27.21-28.06,31.03-8.72,63.22-12.86,96.64-12.09,58.37,1.36,112.59,17.58,162.79,47.24,11.88,7.01,17.11,18.27,17.26,31.64.27,26.17.29,52.35.02,78.51Z"/>
  </g>
</svg>