<?xml version="1.0" encoding="UTF-8"?>
<svg id="Capa_1" data-name="Capa 1" xmlns="http://www.w3.org/2000/svg" xmlns:xlink="http://www.w3.org/1999/xlink" viewBox="0 0 1000 1000">
  <defs>
    <style>
      .cls-1 {
        fill: #000;
      }

      .cls-1, .cls-2, .cls-3 {
        stroke-width: 0px;
      }

      .cls-2 {
        fill: url(#Degradado_sin_nombre_11-2);
      }

      .cls-2, .cls-3 {
        opacity: .3;
      }

      .cls-3 {
        fill: url(#Degradado_sin_nombre_11);
      }
    </style>
    <linearGradient id="Degradado_sin_nombre_11" data-name="Degradado sin nombre 11" x1="493.92" y1="543.06" x2="496.18" y2="540.56" gradientUnits="userSpaceOnUse">
      <stop offset="0" stop-color="#fff"/>
      <stop offset="1" stop-color="#fff" stop-opacity="0"/>
    </linearGradient>
    <linearGradient id="Degradado_sin_nombre_11-2" data-name="Degradado sin nombre 11" x1="441.9" y1="517.08" x2="617.68" y2="322.79" xlink:href="#Degradado_sin_nombre_11"/>
  </defs>
  <path class="cls-1" d="M500,1000C224.3,1000,0,775.7,0,500S224.3,0,500,0s500,224.3,500,500-224.3,500-500,500ZM500,25.21C238.2,25.21,25.21,238.2,25.21,500s212.99,474.79,474.79,474.79,474.79-212.99,474.79-474.79S761.8,25.21,500,25.21Z"/>
  <g>
    <path class="cls-1" d="M649.03,427.46c-.09-13.82-8.82-22.56-22.74-22.62-13.82-.06-27.68,0-41.5-.03-1.53,0-3.06-.12-4.74-.21v-5.77c0-33.06,0-66.12-.03-99.18,0-9.18-5.32-16.15-13.82-17.62-2.06-.35-4.03-.53-5.88-.53-12.35,0-19.59,7.71-19.44,20.8.41,32.33.15,64.65.12,96.98v5.24h-84.12v-5.44c0-33.06.03-66.12,0-99.15-.03-9.35-5.09-16.27-13.59-17.83-2.18-.38-4.21-.59-6.15-.59-12.12,0-19.53,7.59-19.33,20.56.44,32.47.12,64.95.12,97.42v5.35h-5.44c-14.27,0-28.56-.12-42.83.03-2.15.03-4.18.32-6.09.91-8.97,2.5-15.09,10.38-15.27,20.41-.06,3.79-.06,7.56-.03,11.35.12,12.97,8.91,21.91,21.88,22.3,2.26.06,4.56,0,7.24,0v5.24c0,20.53-.18,41.09.09,61.59.12,7.85.44,15.82,2.09,23.44,10.47,49.15,40.27,80.68,88.21,95.18,3.26,1,4.21,2.32,4.18,5.68-.15,20.83-.06,41.65-.06,62.45v5.06h54c0-22.33.15-44.15-.12-66.01-.06-4.44,1.15-6.15,5.5-7.27,31.41-8.24,57.5-29.27,73.12-56.53,9.8-17.03,15.47-36.53,15.8-56.83.32-22.27.09-44.56.12-66.83v-5.18c2.77,0,5.06.06,7.35-.03,12.47-.5,21.21-9.44,21.36-21.88.03-1.47.03-2.97.03-4.44,0-2,0-4.03-.03-6.03ZM457.25,623.36c-.21-.12-.41-.21-.59-.32,13.06-26.27,26.15-52.5,39.5-79.3.35-.71.74-1.44,1.09-2.18h-53.18c-.18-.35-.35-.68-.53-1,6.35-6.26,12.68-12.53,19.03-18.8,30.18-29.8,60.39-59.62,90.57-89.45.24.15.47.29.71.47-13.21,26.53-26.41,53.09-39.94,80.33h52.62c-14.77,14.91-29.53,29.8-44.27,44.68-21.68,21.85-43.33,43.71-65.01,65.56Z"/>
    <path class="cls-3" d="M492.43,541.56h4.82c-.35.74-.74,1.47-1.09,2.18-1.24-.71-2.5-1.44-3.74-2.18Z"/>
    <path class="cls-2" d="M649.06,433.49c0,1.47,0,2.97-.03,4.44-.15,12.44-8.88,21.38-21.36,21.88-2.29.09-4.59.03-7.35.03v5.18c-.03,22.27.21,44.56-.12,66.83-.32,20.3-6,39.8-15.8,56.83-22.83-5.62-52.09-15.94-82.15-30.88,14.74-14.88,29.5-29.77,44.27-44.68h-52.62c13.53-27.24,26.74-53.8,39.94-80.33-.24-.18-.47-.32-.71-.47-30.18,29.83-60.39,59.65-90.57,89.45-8.29-6.09-16.32-12.56-23.97-19.41-31.65-28.33-56.62-63.09-75.04-96.57,1.91-.59,3.94-.88,6.09-.91,14.27-.15,28.56-.03,42.83-.03h5.44v-5.35c0-32.47.32-64.95-.12-97.42-.21-12.97,7.21-20.56,19.33-20.56,1.94,0,3.97.21,6.15.59,8.5,1.56,13.56,8.47,13.59,17.83.03,33.03,0,66.09,0,99.15v5.44h84.12v-5.24c.03-32.33.29-64.65-.12-96.98-.15-13.09,7.09-20.8,19.44-20.8,1.85,0,3.82.18,5.88.53,8.5,1.47,13.82,8.44,13.82,17.62.03,33.06.03,66.12.03,99.18v5.77c1.68.09,3.21.21,4.74.21,13.82.03,27.68-.03,41.5.03,13.91.06,22.65,8.79,22.74,22.62.03,2,.03,4.03.03,6.03Z"/>
  </g>
</svg>