<?xml version="1.0" encoding="UTF-8"?>
<svg id="Capa_1" data-name="Capa 1" xmlns="http://www.w3.org/2000/svg" xmlns:xlink="http://www.w3.org/1999/xlink" viewBox="0 0 1000 1000">
  <defs>
    <style>
      .cls-1 {
        fill: #000;
      }

      .cls-1, .cls-2 {
        stroke-width: 0px;
      }

      .cls-2 {
        fill: url(#Degradado_sin_nombre_11);
        opacity: .3;
      }
    </style>
    <linearGradient id="Degradado_sin_nombre_11" data-name="Degradado sin nombre 11" x1="464.77" y1="539.29" x2="648.31" y2="336.44" gradientUnits="userSpaceOnUse">
      <stop offset="0" stop-color="#fff"/>
      <stop offset="1" stop-color="#fff" stop-opacity="0"/>
    </linearGradient>
  </defs>
  <path class="cls-1" d="M500,1000C224.3,1000,0,775.7,0,500S224.3,0,500,0s500,224.3,500,500-224.3,500-500,500ZM500,25.21C238.2,25.21,25.21,238.2,25.21,500s212.99,474.79,474.79,474.79,474.79-212.99,474.79-474.79S761.8,25.21,500,25.21Z"/>
  <g>
    <path class="cls-1" d="M713.47,469.67c-14.54-3.12-28.96-6.58-43.46-9.69-2.53-.55-3.67-1.6-4.68-4-5.52-13.45-11.25-26.77-17.2-40-1.14-2.49-.84-4.05.46-6.11,8.09-12.65,15.98-25.37,24.07-38.02,1.52-2.32,1.69-3.92-.04-6.28-10.79-14.42-23.35-27.02-37.77-37.77-2.32-1.73-3.92-1.64-6.28-.13-12.65,8.09-25.42,15.97-38.02,24.07-2.36,1.52-4,1.52-6.41.08-12.22-7.21-25.33-12.35-39.2-15.39-2.7-.59-4.01-1.6-4.59-4.47-3.08-14.96-6.58-29.89-9.65-44.85-.67-3.2-1.98-4.22-5.27-4.51-17.53-1.64-35.07-1.26-52.6,0-3.46.25-4.51,1.6-5.14,4.59-3.16,14.84-6.53,29.59-9.61,44.43-.59,2.87-1.73,4.17-4.68,4.93-13.15,3.29-25.71,8.26-37.35,15.22-2.65,1.6-4.38,1.39-6.83-.21-12.6-8.09-25.29-16.1-38.1-23.94-1.26-.8-3.88-1.05-4.97-.25-9.4,6.62-17.91,14.12-25.63,22.47-5.44,5.77-10.45,12.01-15.09,18.63.88,1.52,1.69,2.95,2.57,4.34,7.76,12.31,15.47,24.66,23.31,36.92,1.47,2.23,1.56,3.88.38,6.45-5.86,13.11-11.51,26.34-16.99,39.62-.97,2.28-1.9,3.58-4.51,4.13-14.67,3.16-29.25,6.62-43.92,9.82-2.95.63-4.42,1.81-4.38,4.97.04,17.54.04,35.07-.04,52.65,0,3.33,1.56,4.55,4.68,5.23,14.5,3.12,28.96,6.58,43.46,9.65,2.78.59,3.79,2.02,4.8,4.47,5.48,12.77,11.13,25.5,16.94,38.1,1.01,2.19,1.18,3.58-.13,5.65-8.18,12.77-16.14,25.67-24.32,38.4-1.52,2.36-1.56,3.96.17,6.28,10.79,14.42,23.31,27.02,37.77,37.77,2.4,1.73,3.96,1.56,6.28.08,12.77-8.18,25.59-16.23,38.53-24.19,1.22-.76,3.41-1.05,4.68-.51,13.07,5.61,26.01,11.51,39.07,17.11,2.49,1.05,3.71,2.32,4.26,5.02,3.12,14.33,6.49,28.66,9.57,42.99.72,3.24,1.9,4.97,5.52,4.97,17.24-.08,34.48-.04,51.72.08,3.62,0,5.14-1.43,5.9-5.06,2.91-13.91,6.32-27.78,9.23-41.69.76-3.71,2.45-5.27,5.99-6.66,12.27-4.72,24.49-9.69,36.38-15.39,4.13-1.98,6.7-1.85,10.33.51,12.94,8.43,26.09,16.52,39.16,24.74,10.12-7.17,19.26-15.09,27.48-23.94,5.52-5.86,10.58-12.1,15.3-18.8-.89-1.48-1.69-2.91-2.57-4.3-7.84-12.43-15.72-24.87-23.44-37.39-.8-1.31-1.05-3.67-.46-5.06,5.69-13.19,11.51-26.34,17.49-39.37.68-1.48,2.36-3.08,3.84-3.41,14.58-3.5,29.21-6.79,43.88-9.99,2.99-.67,4.8-1.73,4.76-5.18-.08-17.53-.04-35.07.04-52.6,0-3.33-1.56-4.55-4.68-5.23ZM500.02,617.28c-63.69,0-115.45-52.65-115.28-117.26.04-15.3,2.99-29.88,8.39-43.2,17.03-42.36,58.42-71.91,107.23-71.78,64.2.17,115.11,51.34,114.99,115.54-.08,45.86-26.26,85.52-64.2,104.62-15.43,7.76-32.79,12.1-51.13,12.1Z"/>
    <path class="cls-2" d="M718.15,474.9c-.08,17.54-.13,35.07-.04,52.6.04,3.46-1.77,4.51-4.76,5.18-14.67,3.2-29.29,6.49-43.88,9.99-1.48.34-3.16,1.94-3.84,3.41-5.99,13.02-11.8,26.18-17.49,39.37-.59,1.39-.34,3.75.46,5.06,7.71,12.52,15.6,24.95,23.44,37.39.88,1.39,1.69,2.82,2.57,4.3-4.72,6.7-9.78,12.94-15.3,18.8-31.49-9.23-69.97-24.57-108.16-45.82,37.94-19.1,64.11-58.76,64.2-104.62.13-64.2-50.79-115.37-114.99-115.54-48.81-.13-90.2,29.42-107.23,71.78-23.81-37.22-41.31-75.07-52.6-106.98,7.71-8.35,16.23-15.85,25.63-22.47,1.09-.8,3.71-.55,4.97.25,12.81,7.84,25.5,15.85,38.1,23.94,2.45,1.6,4.17,1.81,6.83.21,11.63-6.95,24.19-11.93,37.35-15.22,2.95-.76,4.09-2.07,4.68-4.93,3.08-14.84,6.45-29.59,9.61-44.43.63-2.99,1.69-4.34,5.14-4.59,17.53-1.26,35.07-1.64,52.6,0,3.29.3,4.59,1.31,5.27,4.51,3.08,14.96,6.58,29.89,9.65,44.85.59,2.87,1.9,3.88,4.59,4.47,13.87,3.04,26.98,8.18,39.2,15.39,2.4,1.43,4.05,1.43,6.41-.08,12.6-8.09,25.37-15.98,38.02-24.07,2.36-1.52,3.96-1.6,6.28.13,14.42,10.75,26.98,23.35,37.77,37.77,1.73,2.36,1.56,3.96.04,6.28-8.09,12.65-15.97,25.37-24.07,38.02-1.31,2.07-1.6,3.62-.46,6.11,5.94,13.24,11.68,26.56,17.2,40,1.01,2.4,2.15,3.46,4.68,4,14.5,3.12,28.92,6.58,43.46,9.69,3.12.67,4.68,1.9,4.68,5.23Z"/>
  </g>
</svg>