<?xml version="1.0" encoding="UTF-8"?>
<svg id="Capa_1" data-name="Capa 1" xmlns="http://www.w3.org/2000/svg" xmlns:xlink="http://www.w3.org/1999/xlink" viewBox="0 0 1920 931.65">
  <defs>
    <style>
      .cls-1 {
        fill: #000;
      }

      .cls-1, .cls-2, .cls-3 {
        stroke-width: 0px;
      }

      .cls-2 {
        fill: #fff;
      }

      .cls-3 {
        fill: url(#Degradado_sin_nombre_11);
        opacity: .3;
      }
    </style>
    <linearGradient id="Degradado_sin_nombre_11" data-name="Degradado sin nombre 11" x1="917.43" y1="323.83" x2="1149.01" y2="67.88" gradientUnits="userSpaceOnUse">
      <stop offset="0" stop-color="#fff"/>
      <stop offset="1" stop-color="#fff" stop-opacity="0"/>
    </linearGradient>
  </defs>
  <g>
    <path class="cls-2" d="M273.61,657.53c-11.04-11.48-29.26-17.26-54.64-17.26H41c-5.48,0-9.92,4.44-9.92,9.92v214.75c0,4.86,2.55,7.29,7.61,7.29h35.79c4.03,0,7.29-3.27,7.29-7.29v-174.97c0-2.63,1.44-3.95,4.3-3.95h122.6c11.28,0,19.21,2.43,23.83,7.29,4.66,4.86,6.98,12.24,6.98,22.2v12.56c0,9.96-2.31,17.38-6.98,22.2-4.62,4.86-12.55,7.29-23.83,7.29h-68.13c-4.46,0-8.08,3.62-8.08,8.08v27.6c0,4.46,3.62,8.08,8.08,8.08h78.41c25.39,0,43.6-5.74,54.64-17.26,11.04-11.48,16.58-28.5,16.58-51.02v-24.51c0-22.52-5.54-39.54-16.58-51.02Z"/>
    <path class="cls-2" d="M589.4,863.95l-56.68-70.23c17.46-3.11,30.05-10.16,37.79-21.24,7.73-11.04,11.6-26.03,11.6-45.04v-18.89c0-22.52-5.54-39.54-16.58-51.02-11.04-11.48-29.26-17.26-54.64-17.26h-177.96c-6.62,0-9.92,3.35-9.92,9.96v214.71c0,4.86,2.55,7.29,7.61,7.29h35.79c4.86,0,7.29-2.43,7.29-7.29v-65.92h107.02l52.37,68.91c1.08,1.51,2.19,2.63,3.31,3.31,1.08.64,3.07,1,5.94,1h42.77c3.07,0,4.86-1.12,5.3-3.31.44-2.23.08-3.87-1-4.98ZM531.4,729.08c0,9.96-2.31,17.38-6.98,22.2-4.62,4.86-12.55,7.29-23.83,7.29h-126.91v-68.91c0-2.63,1.43-3.99,4.3-3.99h122.6c11.28,0,19.21,2.43,23.83,7.29,4.66,4.86,6.98,12.28,6.98,22.2v13.91Z"/>
    <path class="cls-2" d="M666.26,640.29c4.86,0,7.29,2.43,7.29,7.29v217.37c0,4.86-2.43,7.29-7.29,7.29h-35.79c-5.08,0-7.62-2.43-7.62-7.29v-217.37c0-4.86,2.54-7.29,7.62-7.29h35.79Z"/>
    <path class="cls-2" d="M747.77,640.29c2.21,0,3.81.33,4.8.99.99.66,1.93,1.77,2.82,3.31l97.09,178.26c.66,1.55,1.99,2.32,3.97,2.32h1.66c1.54,0,2.76-.77,3.65-2.32l95.76-178.26c1.32-2.87,3.86-4.31,7.62-4.31h43.41c2.65,0,4.25.72,4.8,2.15.55,1.44.27,3.26-.83,5.47l-108.68,199.14c-5.52,10.16-10.93,16.9-16.24,20.21-5.3,3.31-11.49,4.97-18.56,4.97h-19.22c-8.62,0-15.74-1.66-21.37-4.97-5.63-3.31-11.21-10.05-16.73-20.21l-110.01-199.14c-1.11-2.21-1.38-4.03-.83-5.47.55-1.43,2.26-2.15,5.14-2.15h41.75Z"/>
    <path class="cls-2" d="M1071.17,640.29c3.53,0,6.18,1.32,7.95,3.98l88.47,119.62,89.13-119.62c1.77-2.65,4.42-3.98,7.95-3.98h43.41c1.76,0,2.98.72,3.64,2.15.66,1.44.44,2.93-.66,4.47l-118.95,154.41v63.62c0,4.86-2.44,7.29-7.29,7.29h-35.79c-5.08,0-7.62-2.43-7.62-7.29v-63.62l-117.63-154.41c-1.11-1.54-1.38-3.03-.83-4.47.55-1.43,1.82-2.15,3.81-2.15h44.4Z"/>
    <path class="cls-2" d="M1598.19,691.81c-3.91-11.8-9.92-21.52-18.1-29.14-8.17-7.65-18.65-13.27-31.45-16.9-12.83-3.67-28.18-5.5-46.08-5.5h-155.05c-5.5,0-9.96,4.46-9.96,9.96v212.04c0,5.5,4.46,9.96,9.96,9.96h30.33c5.75,0,10.4-4.66,10.4-10.4v-170.87c0-3.07,1.44-4.62,4.3-4.62h108.69c9.73,0,17.9.88,24.51,2.63,6.62,1.79,12,4.66,16.06,8.65,4.11,3.95,7.01,9.25,8.81,15.9,1.75,6.62,2.63,14.79,2.63,24.51v36.43c0,9.73-.88,17.9-2.63,24.55-1.79,6.62-4.7,11.92-8.81,15.9-4.07,3.95-9.45,6.82-16.06,8.61-6.62,1.75-14.79,2.63-24.51,2.63h-56.48c-3.21,0-5.82,2.6-5.82,5.82v34.44c0,3.21,2.6,5.82,5.82,5.82h57.8c17.9,0,33.24-1.83,46.08-5.46,12.79-3.67,23.28-9.29,31.45-16.9,8.17-7.65,14.19-17.34,18.1-29.18,3.83-11.8,5.78-25.79,5.78-41.93v-45.04c0-16.14-1.95-30.09-5.78-41.93Z"/>
    <path class="cls-2" d="M1881.31,640.29c5.08,0,7.62,2.43,7.62,7.29v31.48c0,4.86-2.54,7.29-7.62,7.29h-144.8c-8.62,0-15.74.72-21.37,2.15-5.63,1.44-10.16,3.87-13.59,7.29-3.43,3.43-5.8,8.07-7.13,13.92-1.33,5.86-1.99,13.09-1.99,21.7v3.31h189.2c4.86,0,7.29,2.44,7.29,7.29v26.18c0,4.86-2.44,7.29-7.29,7.29h-189.2v5.63c0,8.62.66,15.85,1.99,21.7,1.33,5.86,3.7,10.49,7.13,13.92,3.42,3.43,7.95,5.86,13.59,7.29,5.63,1.44,12.76,2.15,21.37,2.15h144.8c5.08,0,7.62,2.43,7.62,7.29v31.48c0,4.86-2.54,7.29-7.62,7.29h-145.79c-16.79,0-31.04-1.54-42.74-4.64-11.71-3.09-21.27-8.12-28.66-15.08-7.4-6.96-12.82-16.01-16.24-27.17-3.43-11.15-5.14-24.69-5.14-40.59v-56.99c0-15.9,1.71-29.38,5.14-40.42,3.42-11.04,8.83-20.05,16.24-27,7.4-6.96,16.95-12.04,28.66-15.24,11.71-3.2,25.95-4.8,42.74-4.8h145.79Z"/>
  </g>
  <g>
    <g>
      <path class="cls-1" d="M807.51,490.51c-35.46,0-64.31-28.85-64.31-64.31V121.22c0-1.78.07-3.42.21-5.01,2.51-33.23,30.67-59.3,64.09-59.3h304.98c35.46,0,64.31,28.85,64.31,64.31v304.98c0,35.46-28.85,64.31-64.31,64.31h-304.98Z"/>
      <path class="cls-2" d="M1112.49,59.41c34.14,0,61.81,27.66,61.81,61.81v304.98c0,34.14-27.66,61.81-61.81,61.81h-304.98c-34.14,0-61.81-27.66-61.81-61.81V121.21c0-1.61.06-3.21.2-4.78,2.41-31.92,29.07-57.02,61.6-57.02h304.98M1112.49,54.41h-304.98c-16.95,0-33.11,6.35-45.5,17.88-12.32,11.47-19.81,27-21.08,43.73-.15,1.65-.22,3.35-.22,5.2v304.98c0,36.84,29.97,66.81,66.81,66.81h304.98c36.84,0,66.81-29.97,66.81-66.81V121.21c0-36.84-29.97-66.81-66.81-66.81h0Z"/>
    </g>
    <path class="cls-2" d="M1128.66,138.76c-14.29-14.86-37.89-22.33-70.76-22.33h-312.2v59.21h298.89c14.6,0,24.88,3.15,30.91,9.45,5.99,6.3,9,15.89,9,28.73v16.32c0,12.86-3.01,22.45-9,28.75-6.03,6.28-16.32,9.43-30.91,9.43l-155.67.14c-1.17,0-2.33.02-3.5.08-39.4,1.86-70.76,34.39-70.76,74.24v145.24h65.65v-133.47c0-16.36,13.27-29.61,29.6-29.61h147.98c32.88,0,56.47-7.44,70.76-22.33,14.29-14.84,21.47-36.86,21.47-66.06v-31.73c0-29.18-7.18-51.2-21.47-66.06h0Z"/>
    <path class="cls-3" d="M807.5,59.41h305c34.13,0,61.8,27.67,61.8,61.8v305c-.07.51-.22,1.07-.54,1.6-9.65,16.09-149.21-20.12-240.52-105.19-102.57-95.56-143.96-252.5-127.34-262.67.4-.25.92-.46,1.6-.54h0Z"/>
  </g>
</svg>