<svg width="40" height="24" viewBox="0 0 40 24" fill="none" xmlns="http://www.w3.org/2000/svg">
  <rect width="40" height="24" rx="4" fill="#016FD0"/>
  <path d="M6 12L8 8.5H12L13 10L14 8.5H31L32.5 10L34 8.5H36L34 12L32 15.5H14L13 14L11.5 15.5H8L6 12Z" fill="#EEEEEE"/>
  <path d="M20 11.5H25L25.5 12.5H20V11.5Z" fill="#016FD0"/>
  <path d="M19 13H26L26.5 14H19V13Z" fill="#016FD0"/>
  <path d="M21 9.5H24L24.5 10.5H21V9.5Z" fill="#016FD0"/>
  <path d="M9 10.5H11L11.5 11.5H9V10.5Z" fill="#016FD0"/>
  <path d="M10 12.5H12L12.5 13.5H10V12.5Z" fill="#016FD0"/>
  <path d="M28 10.5H30L30.5 11.5H28V10.5Z" fill="#016FD0"/>
  <path d="M29 12.5H31L31.5 13.5H29V12.5Z" fill="#016FD0"/>
</svg> 