<svg width="40" height="24" viewBox="0 0 40 24" fill="none" xmlns="http://www.w3.org/2000/svg">
  <rect width="40" height="24" rx="4" fill="white"/>
  <path d="M15.5 15.5H12.5L14.5 8.5H17.5L15.5 15.5Z" fill="#3C58BF"/>
  <path d="M15.5 15.5H12.5L14.5 8.5H17.5L15.5 15.5Z" fill="#293688"/>
  <path d="M23.5 8.5C22.8 8.5 22.2 8.6 21.5 9.1L21 8.5H18.5L16.5 15.5H19.5L20 13.5H20.3C20.8 13.5 21 13.7 21 14.2L20.8 15.5H23.8L24 14.5C24.2 14.3 24.3 14 24.3 13.5C25.2 13 26 12 26 10.5C26 9.2 24.8 8.5 23.5 8.5ZM23.7 11C23.7 11.5 23.3 12 22.7 12H21.7L22 10.5H23C23.3 10.5 23.7 10.7 23.7 11Z" fill="#3C58BF"/>
  <path d="M23.5 8.5C22.8 8.5 22.2 8.6 21.5 9.1L21 8.5H18.5L16.5 15.5H19.5L20 13.5H20.3C20.8 13.5 21 13.7 21 14.2L20.8 15.5H23.8L24 14.5C24.2 14.3 24.3 14 24.3 13.5C25.2 13 26 12 26 10.5C26 9.2 24.8 8.5 23.5 8.5ZM23.7 11C23.7 11.5 23.3 12 22.7 12H21.7L22 10.5H23C23.3 10.5 23.7 10.7 23.7 11Z" fill="#293688"/>
  <path d="M27 8.5L26.8 9.2C27.5 9.5 29 10 30 10.7L30.3 8.8C29.3 8.2 28 8.2 27 8.5Z" fill="#FFBC00"/>
  <path d="M27 8.5C27 8.5 27.5 10.5 27.8 11.5C28 12.5 28.3 13.5 28.5 14C28.8 14.5 29 15 29.3 15.5H32L33.5 8.5H30.5L29.5 13.5L29 11C28.7 9.5 28 8.5 27 8.5Z" fill="#F7981D"/>
</svg> 